<mxfile host="app.diagrams.net" modified="2022-09-24T09:14:13.235Z" agent="5.0 (Windows NT 10.0; Win64; x64) AppleWebKit/537.36 (KHTML, like Gecko) Chrome/105.0.0.0 Safari/537.36" etag="JHhi6vQ_52ZpuWHbIjqO" version="20.3.0" type="github">
  <diagram id="VOp5mjlp2HQmrB3yNQmH" name="第 1 页">
    <mxGraphModel dx="1422" dy="738" grid="1" gridSize="10" guides="1" tooltips="1" connect="1" arrows="1" fold="1" page="1" pageScale="1" pageWidth="827" pageHeight="1169" math="0" shadow="0">
      <root>
        <mxCell id="0" />
        <mxCell id="1" parent="0" />
        <mxCell id="V0iQPNpV9xVYlXSdjF5p-11" value="" style="rounded=0;whiteSpace=wrap;html=1;dashed=1;" vertex="1" parent="1">
          <mxGeometry x="20" y="2020" width="580" height="160" as="geometry" />
        </mxCell>
        <mxCell id="-aMOJ7WB9ZFkgqsZZZWB-4" style="edgeStyle=orthogonalEdgeStyle;rounded=0;orthogonalLoop=1;jettySize=auto;html=1;exitX=1;exitY=0.5;exitDx=0;exitDy=0;entryX=0;entryY=0.5;entryDx=0;entryDy=0;fontSize=14;" parent="1" source="-aMOJ7WB9ZFkgqsZZZWB-1" target="-aMOJ7WB9ZFkgqsZZZWB-2" edge="1">
          <mxGeometry relative="1" as="geometry" />
        </mxCell>
        <mxCell id="-aMOJ7WB9ZFkgqsZZZWB-1" value="豆瓣电影数爬虫" style="rounded=1;whiteSpace=wrap;html=1;fillColor=#e1d5e7;strokeColor=#9673a6;fontSize=14;" parent="1" vertex="1">
          <mxGeometry x="263" y="380" width="120" height="50" as="geometry" />
        </mxCell>
        <mxCell id="-aMOJ7WB9ZFkgqsZZZWB-5" style="edgeStyle=orthogonalEdgeStyle;rounded=0;orthogonalLoop=1;jettySize=auto;html=1;exitX=0.5;exitY=1;exitDx=0;exitDy=0;entryX=0.5;entryY=0;entryDx=0;entryDy=0;fontSize=14;" parent="1" source="-aMOJ7WB9ZFkgqsZZZWB-2" target="-aMOJ7WB9ZFkgqsZZZWB-3" edge="1">
          <mxGeometry relative="1" as="geometry" />
        </mxCell>
        <mxCell id="-aMOJ7WB9ZFkgqsZZZWB-2" value="基于scrapy的豆瓣电影信息爬虫" style="rounded=1;whiteSpace=wrap;html=1;fillColor=#e1d5e7;strokeColor=#9673a6;fontSize=14;" parent="1" vertex="1">
          <mxGeometry x="443" y="380" width="227" height="50" as="geometry" />
        </mxCell>
        <mxCell id="-aMOJ7WB9ZFkgqsZZZWB-3" value="爬取电影基础信息" style="rounded=1;whiteSpace=wrap;html=1;fillColor=#e1d5e7;strokeColor=#9673a6;fontSize=14;" parent="1" vertex="1">
          <mxGeometry x="444.5" y="460" width="228.5" height="30" as="geometry" />
        </mxCell>
        <mxCell id="-aMOJ7WB9ZFkgqsZZZWB-12" value="" style="rounded=1;whiteSpace=wrap;html=1;fontSize=14;fillColor=#f5f5f5;strokeColor=#666666;fontColor=#333333;" parent="1" vertex="1">
          <mxGeometry x="103" y="680" width="550" height="160" as="geometry" />
        </mxCell>
        <mxCell id="-aMOJ7WB9ZFkgqsZZZWB-6" value="推荐算法" style="rounded=1;whiteSpace=wrap;html=1;fontSize=14;fillColor=#d5e8d4;strokeColor=#82b366;" parent="1" vertex="1">
          <mxGeometry x="123" y="710" width="130" height="110" as="geometry" />
        </mxCell>
        <mxCell id="-aMOJ7WB9ZFkgqsZZZWB-7" value="ItemCF" style="rounded=1;whiteSpace=wrap;html=1;fontSize=14;fillColor=#f5f5f5;strokeColor=#666666;fontColor=#333333;" parent="1" vertex="1">
          <mxGeometry x="273" y="710" width="106" height="40" as="geometry" />
        </mxCell>
        <mxCell id="-aMOJ7WB9ZFkgqsZZZWB-10" value="UserCF" style="rounded=1;whiteSpace=wrap;html=1;fontSize=14;fillColor=#f5f5f5;strokeColor=#666666;fontColor=#333333;" parent="1" vertex="1">
          <mxGeometry x="393" y="710" width="106" height="40" as="geometry" />
        </mxCell>
        <mxCell id="-aMOJ7WB9ZFkgqsZZZWB-11" value="SVD" style="rounded=1;whiteSpace=wrap;html=1;fontSize=14;fillColor=#f5f5f5;strokeColor=#666666;fontColor=#333333;" parent="1" vertex="1">
          <mxGeometry x="513" y="710" width="106" height="40" as="geometry" />
        </mxCell>
        <mxCell id="-aMOJ7WB9ZFkgqsZZZWB-13" value="ALS-MLP" style="rounded=1;whiteSpace=wrap;html=1;fontSize=14;fillColor=#dae8fc;strokeColor=#6c8ebf;" parent="1" vertex="1">
          <mxGeometry x="273" y="770" width="106" height="40" as="geometry" />
        </mxCell>
        <mxCell id="-aMOJ7WB9ZFkgqsZZZWB-14" value="CNN" style="rounded=1;whiteSpace=wrap;html=1;fontSize=14;fillColor=#dae8fc;strokeColor=#6c8ebf;" parent="1" vertex="1">
          <mxGeometry x="393" y="770" width="106" height="40" as="geometry" />
        </mxCell>
        <mxCell id="-aMOJ7WB9ZFkgqsZZZWB-15" value="RNN" style="rounded=1;whiteSpace=wrap;html=1;fontSize=14;fillColor=#dae8fc;strokeColor=#6c8ebf;" parent="1" vertex="1">
          <mxGeometry x="513" y="770" width="106" height="40" as="geometry" />
        </mxCell>
        <mxCell id="-aMOJ7WB9ZFkgqsZZZWB-16" value="&amp;nbsp; &amp;nbsp;Item Based CF : 基于Item的协同过滤推荐算法&amp;nbsp;" style="rounded=1;whiteSpace=wrap;html=1;fontSize=14;fillColor=#f5f5f5;strokeColor=#666666;fontColor=#333333;align=left;" parent="1" vertex="1">
          <mxGeometry x="103" y="860" width="550" height="40" as="geometry" />
        </mxCell>
        <mxCell id="-aMOJ7WB9ZFkgqsZZZWB-17" value="&amp;nbsp; &amp;nbsp;User Based CF :&amp;nbsp; 基于User的协同过滤推荐算法" style="rounded=1;whiteSpace=wrap;html=1;fontSize=14;fillColor=#f5f5f5;strokeColor=#666666;fontColor=#333333;align=left;" parent="1" vertex="1">
          <mxGeometry x="103" y="910" width="550" height="40" as="geometry" />
        </mxCell>
        <mxCell id="-aMOJ7WB9ZFkgqsZZZWB-18" value="&amp;nbsp; &amp;nbsp;SVD : SVD是最常见的降维算法，利用矩阵的奇异值分解处理评分矩阵" style="rounded=1;whiteSpace=wrap;html=1;fontSize=14;fillColor=#f5f5f5;strokeColor=#666666;fontColor=#333333;align=left;" parent="1" vertex="1">
          <mxGeometry x="103" y="960" width="550" height="40" as="geometry" />
        </mxCell>
        <mxCell id="-aMOJ7WB9ZFkgqsZZZWB-19" value="&amp;nbsp; &amp;nbsp;ALS-MLP :&amp;nbsp; 对评分矩阵进行分解后，用交替最小二乘法评估缺失值实现推荐，因ALS原理较为简单，所以结合多层神经网络来提升表现。(PyTorch)" style="rounded=1;whiteSpace=wrap;html=1;fontSize=14;fillColor=#dae8fc;strokeColor=#6c8ebf;align=left;" parent="1" vertex="1">
          <mxGeometry x="103" y="1075" width="550" height="40" as="geometry" />
        </mxCell>
        <mxCell id="-aMOJ7WB9ZFkgqsZZZWB-20" value="&amp;nbsp; &amp;nbsp;CNN :&amp;nbsp; 提取用户/物品的特征向量，利用卷积神经网络模型来实现推荐(PyTorch)" style="rounded=1;whiteSpace=wrap;html=1;fontSize=14;fillColor=#dae8fc;strokeColor=#6c8ebf;align=left;" parent="1" vertex="1">
          <mxGeometry x="103" y="1129" width="550" height="40" as="geometry" />
        </mxCell>
        <mxCell id="-aMOJ7WB9ZFkgqsZZZWB-21" value="&amp;nbsp; &amp;nbsp;RNN :&amp;nbsp; 提取用户/物品的特征向量，利用循环神经网络模型来实现推荐 (PyTorch)" style="rounded=1;whiteSpace=wrap;html=1;fontSize=14;fillColor=#dae8fc;strokeColor=#6c8ebf;align=left;" parent="1" vertex="1">
          <mxGeometry x="103" y="1180" width="550" height="40" as="geometry" />
        </mxCell>
        <mxCell id="-aMOJ7WB9ZFkgqsZZZWB-22" value="" style="shape=curlyBracket;whiteSpace=wrap;html=1;rounded=1;flipH=1;fontSize=14;" parent="1" vertex="1">
          <mxGeometry x="673" y="1080" width="20" height="130" as="geometry" />
        </mxCell>
        <mxCell id="-aMOJ7WB9ZFkgqsZZZWB-23" value="深度学习" style="rounded=1;whiteSpace=wrap;html=1;fontSize=14;fillColor=#dae8fc;strokeColor=#6c8ebf;align=center;" parent="1" vertex="1">
          <mxGeometry x="703" y="1115" width="100" height="40" as="geometry" />
        </mxCell>
        <mxCell id="-aMOJ7WB9ZFkgqsZZZWB-51" style="edgeStyle=orthogonalEdgeStyle;rounded=0;orthogonalLoop=1;jettySize=auto;html=1;exitX=1;exitY=0.5;exitDx=0;exitDy=0;entryX=0;entryY=0.5;entryDx=0;entryDy=0;fontSize=13;" parent="1" source="-aMOJ7WB9ZFkgqsZZZWB-25" target="-aMOJ7WB9ZFkgqsZZZWB-35" edge="1">
          <mxGeometry relative="1" as="geometry" />
        </mxCell>
        <mxCell id="-aMOJ7WB9ZFkgqsZZZWB-52" style="edgeStyle=orthogonalEdgeStyle;rounded=0;orthogonalLoop=1;jettySize=auto;html=1;exitX=1;exitY=0.5;exitDx=0;exitDy=0;entryX=0;entryY=0.5;entryDx=0;entryDy=0;fontSize=13;" parent="1" source="-aMOJ7WB9ZFkgqsZZZWB-25" target="-aMOJ7WB9ZFkgqsZZZWB-39" edge="1">
          <mxGeometry relative="1" as="geometry" />
        </mxCell>
        <mxCell id="-aMOJ7WB9ZFkgqsZZZWB-53" style="edgeStyle=orthogonalEdgeStyle;rounded=0;orthogonalLoop=1;jettySize=auto;html=1;exitX=1;exitY=0.5;exitDx=0;exitDy=0;entryX=0;entryY=0.5;entryDx=0;entryDy=0;fontSize=13;" parent="1" source="-aMOJ7WB9ZFkgqsZZZWB-25" target="-aMOJ7WB9ZFkgqsZZZWB-36" edge="1">
          <mxGeometry relative="1" as="geometry" />
        </mxCell>
        <mxCell id="-aMOJ7WB9ZFkgqsZZZWB-55" style="edgeStyle=orthogonalEdgeStyle;rounded=0;orthogonalLoop=1;jettySize=auto;html=1;exitX=1;exitY=0.5;exitDx=0;exitDy=0;entryX=0;entryY=0.5;entryDx=0;entryDy=0;fontSize=13;" parent="1" source="-aMOJ7WB9ZFkgqsZZZWB-25" target="-aMOJ7WB9ZFkgqsZZZWB-37" edge="1">
          <mxGeometry relative="1" as="geometry" />
        </mxCell>
        <mxCell id="0jEX740wsoMFDmwRTyFC-14" style="edgeStyle=orthogonalEdgeStyle;rounded=0;orthogonalLoop=1;jettySize=auto;html=1;exitX=1;exitY=0.5;exitDx=0;exitDy=0;entryX=0;entryY=0.5;entryDx=0;entryDy=0;" parent="1" source="-aMOJ7WB9ZFkgqsZZZWB-25" target="-aMOJ7WB9ZFkgqsZZZWB-1" edge="1">
          <mxGeometry relative="1" as="geometry" />
        </mxCell>
        <mxCell id="-aMOJ7WB9ZFkgqsZZZWB-25" value="电影推荐可视化" style="rounded=1;whiteSpace=wrap;html=1;fontSize=14;fillColor=#dae8fc;strokeColor=#6c8ebf;" parent="1" vertex="1">
          <mxGeometry x="50" y="200" width="160" height="60" as="geometry" />
        </mxCell>
        <mxCell id="-aMOJ7WB9ZFkgqsZZZWB-35" value="登录与注册" style="rounded=1;whiteSpace=wrap;html=1;fontSize=15;fillColor=#d5e8d4;strokeColor=#82b366;" parent="1" vertex="1">
          <mxGeometry x="263" y="50" width="120" height="40" as="geometry" />
        </mxCell>
        <mxCell id="-aMOJ7WB9ZFkgqsZZZWB-59" style="edgeStyle=orthogonalEdgeStyle;rounded=0;orthogonalLoop=1;jettySize=auto;html=1;exitX=1;exitY=0.5;exitDx=0;exitDy=0;entryX=0;entryY=0.5;entryDx=0;entryDy=0;fontSize=13;" parent="1" source="-aMOJ7WB9ZFkgqsZZZWB-36" target="-aMOJ7WB9ZFkgqsZZZWB-44" edge="1">
          <mxGeometry relative="1" as="geometry" />
        </mxCell>
        <mxCell id="-aMOJ7WB9ZFkgqsZZZWB-36" value="数据分析可视化" style="rounded=1;whiteSpace=wrap;html=1;fontSize=15;fillColor=#d5e8d4;strokeColor=#82b366;" parent="1" vertex="1">
          <mxGeometry x="263" y="210" width="120" height="40" as="geometry" />
        </mxCell>
        <mxCell id="-aMOJ7WB9ZFkgqsZZZWB-61" style="edgeStyle=orthogonalEdgeStyle;rounded=0;orthogonalLoop=1;jettySize=auto;html=1;exitX=1;exitY=0.5;exitDx=0;exitDy=0;entryX=0;entryY=0.5;entryDx=0;entryDy=0;fontSize=13;" parent="1" source="-aMOJ7WB9ZFkgqsZZZWB-37" target="-aMOJ7WB9ZFkgqsZZZWB-38" edge="1">
          <mxGeometry relative="1" as="geometry" />
        </mxCell>
        <mxCell id="-aMOJ7WB9ZFkgqsZZZWB-37" value="词&amp;nbsp; &amp;nbsp; 云" style="rounded=1;whiteSpace=wrap;html=1;fontSize=15;fillColor=#d5e8d4;strokeColor=#82b366;" parent="1" vertex="1">
          <mxGeometry x="263" y="300" width="120" height="40" as="geometry" />
        </mxCell>
        <mxCell id="-aMOJ7WB9ZFkgqsZZZWB-38" value="[电影简介] 词云" style="rounded=1;whiteSpace=wrap;html=1;fontSize=15;fillColor=#d5e8d4;strokeColor=#82b366;" parent="1" vertex="1">
          <mxGeometry x="423" y="300" width="137" height="40" as="geometry" />
        </mxCell>
        <mxCell id="-aMOJ7WB9ZFkgqsZZZWB-57" style="edgeStyle=orthogonalEdgeStyle;rounded=0;orthogonalLoop=1;jettySize=auto;html=1;exitX=1;exitY=0.5;exitDx=0;exitDy=0;entryX=0;entryY=0.5;entryDx=0;entryDy=0;fontSize=13;" parent="1" source="-aMOJ7WB9ZFkgqsZZZWB-39" target="-aMOJ7WB9ZFkgqsZZZWB-41" edge="1">
          <mxGeometry relative="1" as="geometry" />
        </mxCell>
        <mxCell id="-aMOJ7WB9ZFkgqsZZZWB-58" style="edgeStyle=orthogonalEdgeStyle;rounded=0;orthogonalLoop=1;jettySize=auto;html=1;exitX=1;exitY=0.5;exitDx=0;exitDy=0;entryX=0;entryY=0.5;entryDx=0;entryDy=0;fontSize=13;" parent="1" source="-aMOJ7WB9ZFkgqsZZZWB-39" target="-aMOJ7WB9ZFkgqsZZZWB-43" edge="1">
          <mxGeometry relative="1" as="geometry" />
        </mxCell>
        <mxCell id="0jEX740wsoMFDmwRTyFC-12" style="edgeStyle=orthogonalEdgeStyle;rounded=0;orthogonalLoop=1;jettySize=auto;html=1;exitX=1;exitY=0.5;exitDx=0;exitDy=0;" parent="1" source="-aMOJ7WB9ZFkgqsZZZWB-39" edge="1">
          <mxGeometry relative="1" as="geometry">
            <mxPoint x="430" y="140" as="targetPoint" />
          </mxGeometry>
        </mxCell>
        <mxCell id="0jEX740wsoMFDmwRTyFC-13" style="edgeStyle=orthogonalEdgeStyle;rounded=0;orthogonalLoop=1;jettySize=auto;html=1;exitX=1;exitY=0.5;exitDx=0;exitDy=0;entryX=0;entryY=0.5;entryDx=0;entryDy=0;" parent="1" source="-aMOJ7WB9ZFkgqsZZZWB-39" target="0jEX740wsoMFDmwRTyFC-11" edge="1">
          <mxGeometry relative="1" as="geometry" />
        </mxCell>
        <mxCell id="-aMOJ7WB9ZFkgqsZZZWB-39" value="电影推荐" style="rounded=1;whiteSpace=wrap;html=1;fontSize=15;fillColor=#d5e8d4;strokeColor=#82b366;" parent="1" vertex="1">
          <mxGeometry x="263" y="120" width="120" height="40" as="geometry" />
        </mxCell>
        <mxCell id="-aMOJ7WB9ZFkgqsZZZWB-41" value="UserCF、ItemCF&lt;br&gt;双协同过滤推荐算法" style="rounded=1;whiteSpace=wrap;html=1;fontSize=13;fillColor=#d5e8d4;strokeColor=#82b366;" parent="1" vertex="1">
          <mxGeometry x="431.5" y="50" width="120" height="40" as="geometry" />
        </mxCell>
        <mxCell id="-aMOJ7WB9ZFkgqsZZZWB-43" value="SVD 推荐算法" style="rounded=1;whiteSpace=wrap;html=1;fontSize=13;fillColor=#d5e8d4;strokeColor=#82b366;" parent="1" vertex="1">
          <mxGeometry x="431.5" y="100" width="120" height="20" as="geometry" />
        </mxCell>
        <mxCell id="-aMOJ7WB9ZFkgqsZZZWB-62" style="edgeStyle=orthogonalEdgeStyle;rounded=0;orthogonalLoop=1;jettySize=auto;html=1;exitX=1;exitY=0.5;exitDx=0;exitDy=0;entryX=0;entryY=0.5;entryDx=0;entryDy=0;fontSize=13;" parent="1" source="-aMOJ7WB9ZFkgqsZZZWB-44" target="-aMOJ7WB9ZFkgqsZZZWB-45" edge="1">
          <mxGeometry relative="1" as="geometry" />
        </mxCell>
        <mxCell id="-aMOJ7WB9ZFkgqsZZZWB-63" style="edgeStyle=orthogonalEdgeStyle;rounded=0;orthogonalLoop=1;jettySize=auto;html=1;exitX=1;exitY=0.5;exitDx=0;exitDy=0;entryX=0;entryY=0.5;entryDx=0;entryDy=0;fontSize=13;" parent="1" source="-aMOJ7WB9ZFkgqsZZZWB-44" target="-aMOJ7WB9ZFkgqsZZZWB-46" edge="1">
          <mxGeometry relative="1" as="geometry" />
        </mxCell>
        <mxCell id="-aMOJ7WB9ZFkgqsZZZWB-64" style="edgeStyle=orthogonalEdgeStyle;rounded=0;orthogonalLoop=1;jettySize=auto;html=1;exitX=1;exitY=0.5;exitDx=0;exitDy=0;entryX=0;entryY=0.5;entryDx=0;entryDy=0;fontSize=13;" parent="1" source="-aMOJ7WB9ZFkgqsZZZWB-44" target="-aMOJ7WB9ZFkgqsZZZWB-47" edge="1">
          <mxGeometry relative="1" as="geometry" />
        </mxCell>
        <mxCell id="-aMOJ7WB9ZFkgqsZZZWB-44" value="Echarts 可视化" style="rounded=1;whiteSpace=wrap;html=1;fontSize=15;fillColor=#d5e8d4;strokeColor=#82b366;" parent="1" vertex="1">
          <mxGeometry x="431.5" y="210" width="120" height="40" as="geometry" />
        </mxCell>
        <mxCell id="-aMOJ7WB9ZFkgqsZZZWB-45" value="世界地图" style="rounded=1;whiteSpace=wrap;html=1;fontSize=15;fillColor=#d5e8d4;strokeColor=#82b366;" parent="1" vertex="1">
          <mxGeometry x="620" y="175" width="110" height="30" as="geometry" />
        </mxCell>
        <mxCell id="-aMOJ7WB9ZFkgqsZZZWB-46" value="柱/线/饼状图" style="rounded=1;whiteSpace=wrap;html=1;fontSize=15;fillColor=#d5e8d4;strokeColor=#82b366;" parent="1" vertex="1">
          <mxGeometry x="620" y="215" width="110" height="30" as="geometry" />
        </mxCell>
        <mxCell id="-aMOJ7WB9ZFkgqsZZZWB-47" value="漏斗图/仪表盘" style="rounded=1;whiteSpace=wrap;html=1;fontSize=15;fillColor=#d5e8d4;strokeColor=#82b366;" parent="1" vertex="1">
          <mxGeometry x="621" y="255" width="110" height="30" as="geometry" />
        </mxCell>
        <mxCell id="0jEX740wsoMFDmwRTyFC-1" value="&amp;nbsp; &amp;nbsp;混合CF（ALS） :&amp;nbsp; 对评分矩阵进行分解后，用交替最小二乘法评估缺失值实现推荐" style="rounded=1;whiteSpace=wrap;html=1;fontSize=14;fillColor=#dae8fc;strokeColor=#6c8ebf;align=left;" parent="1" vertex="1">
          <mxGeometry x="103" y="1020" width="550" height="40" as="geometry" />
        </mxCell>
        <mxCell id="0jEX740wsoMFDmwRTyFC-2" value="" style="shape=image;html=1;verticalAlign=top;verticalLabelPosition=bottom;labelBackgroundColor=#ffffff;imageAspect=0;aspect=fixed;image=https://cdn1.iconfinder.com/data/icons/CrystalClear/128x128/actions/button_ok.png" parent="1" vertex="1">
          <mxGeometry x="40" y="860" width="48" height="48" as="geometry" />
        </mxCell>
        <mxCell id="0jEX740wsoMFDmwRTyFC-3" value="" style="shape=image;html=1;verticalAlign=top;verticalLabelPosition=bottom;labelBackgroundColor=#ffffff;imageAspect=0;aspect=fixed;image=https://cdn1.iconfinder.com/data/icons/CrystalClear/128x128/actions/button_ok.png" parent="1" vertex="1">
          <mxGeometry x="40" y="908" width="48" height="48" as="geometry" />
        </mxCell>
        <mxCell id="0jEX740wsoMFDmwRTyFC-8" value="混合CF" style="rounded=1;whiteSpace=wrap;html=1;fontSize=13;fillColor=#d5e8d4;strokeColor=#82b366;" parent="1" vertex="1">
          <mxGeometry x="431.5" y="130" width="120" height="20" as="geometry" />
        </mxCell>
        <mxCell id="0jEX740wsoMFDmwRTyFC-11" value="混合CF+神经网络" style="rounded=1;whiteSpace=wrap;html=1;fontSize=13;fillColor=#d5e8d4;strokeColor=#82b366;" parent="1" vertex="1">
          <mxGeometry x="431.5" y="160" width="120" height="20" as="geometry" />
        </mxCell>
        <mxCell id="4sxwdQ2FRn1By4ORZ0Yz-13" style="edgeStyle=orthogonalEdgeStyle;rounded=0;orthogonalLoop=1;jettySize=auto;html=1;exitX=0.5;exitY=0;exitDx=0;exitDy=0;entryX=0.5;entryY=1;entryDx=0;entryDy=0;fontSize=16;" parent="1" source="4sxwdQ2FRn1By4ORZ0Yz-1" target="4sxwdQ2FRn1By4ORZ0Yz-2" edge="1">
          <mxGeometry relative="1" as="geometry" />
        </mxCell>
        <mxCell id="4sxwdQ2FRn1By4ORZ0Yz-1" value="特征矩阵" style="rounded=1;whiteSpace=wrap;html=1;dashed=1;fillColor=#dae8fc;strokeColor=#6c8ebf;fontSize=16;" parent="1" vertex="1">
          <mxGeometry x="189" y="1640" width="430" height="50" as="geometry" />
        </mxCell>
        <mxCell id="4sxwdQ2FRn1By4ORZ0Yz-14" style="edgeStyle=orthogonalEdgeStyle;rounded=0;orthogonalLoop=1;jettySize=auto;html=1;exitX=0.5;exitY=0;exitDx=0;exitDy=0;entryX=0.5;entryY=1;entryDx=0;entryDy=0;fontSize=16;" parent="1" source="4sxwdQ2FRn1By4ORZ0Yz-2" target="4sxwdQ2FRn1By4ORZ0Yz-3" edge="1">
          <mxGeometry relative="1" as="geometry" />
        </mxCell>
        <mxCell id="4sxwdQ2FRn1By4ORZ0Yz-2" value="CNN卷积神经网络" style="rounded=1;whiteSpace=wrap;html=1;fillColor=#dae8fc;strokeColor=#6c8ebf;fontSize=16;" parent="1" vertex="1">
          <mxGeometry x="187" y="1550" width="430" height="60" as="geometry" />
        </mxCell>
        <mxCell id="4sxwdQ2FRn1By4ORZ0Yz-15" style="edgeStyle=orthogonalEdgeStyle;rounded=0;orthogonalLoop=1;jettySize=auto;html=1;exitX=0.5;exitY=0;exitDx=0;exitDy=0;entryX=0.5;entryY=1;entryDx=0;entryDy=0;fontSize=16;" parent="1" source="4sxwdQ2FRn1By4ORZ0Yz-3" target="4sxwdQ2FRn1By4ORZ0Yz-4" edge="1">
          <mxGeometry relative="1" as="geometry" />
        </mxCell>
        <mxCell id="4sxwdQ2FRn1By4ORZ0Yz-3" value="Hidden Layer 1" style="rounded=1;whiteSpace=wrap;html=1;fillColor=#dae8fc;strokeColor=#6c8ebf;fontSize=16;" parent="1" vertex="1">
          <mxGeometry x="187" y="1470" width="430" height="60" as="geometry" />
        </mxCell>
        <mxCell id="4sxwdQ2FRn1By4ORZ0Yz-16" style="edgeStyle=orthogonalEdgeStyle;rounded=0;orthogonalLoop=1;jettySize=auto;html=1;exitX=0.5;exitY=0;exitDx=0;exitDy=0;entryX=0.5;entryY=1;entryDx=0;entryDy=0;fontSize=16;" parent="1" source="4sxwdQ2FRn1By4ORZ0Yz-4" target="4sxwdQ2FRn1By4ORZ0Yz-5" edge="1">
          <mxGeometry relative="1" as="geometry" />
        </mxCell>
        <mxCell id="4sxwdQ2FRn1By4ORZ0Yz-4" value="Hidden Layer 2" style="rounded=1;whiteSpace=wrap;html=1;fillColor=#dae8fc;strokeColor=#6c8ebf;fontSize=16;" parent="1" vertex="1">
          <mxGeometry x="187" y="1390" width="430" height="60" as="geometry" />
        </mxCell>
        <mxCell id="4sxwdQ2FRn1By4ORZ0Yz-5" value="一维的输出" style="rounded=1;whiteSpace=wrap;html=1;fillColor=#dae8fc;strokeColor=#6c8ebf;fontSize=16;" parent="1" vertex="1">
          <mxGeometry x="342" y="1290" width="120" height="60" as="geometry" />
        </mxCell>
        <mxCell id="4sxwdQ2FRn1By4ORZ0Yz-9" value="" style="edgeStyle=orthogonalEdgeStyle;rounded=0;orthogonalLoop=1;jettySize=auto;html=1;fontSize=16;" parent="1" source="4sxwdQ2FRn1By4ORZ0Yz-7" target="4sxwdQ2FRn1By4ORZ0Yz-1" edge="1">
          <mxGeometry relative="1" as="geometry" />
        </mxCell>
        <mxCell id="4sxwdQ2FRn1By4ORZ0Yz-7" value="用户特征" style="rounded=1;whiteSpace=wrap;html=1;fontSize=16;" parent="1" vertex="1">
          <mxGeometry x="189" y="1740" width="201" height="60" as="geometry" />
        </mxCell>
        <mxCell id="4sxwdQ2FRn1By4ORZ0Yz-10" value="" style="edgeStyle=orthogonalEdgeStyle;rounded=0;orthogonalLoop=1;jettySize=auto;html=1;fontSize=16;" parent="1" source="4sxwdQ2FRn1By4ORZ0Yz-8" target="4sxwdQ2FRn1By4ORZ0Yz-1" edge="1">
          <mxGeometry relative="1" as="geometry" />
        </mxCell>
        <mxCell id="4sxwdQ2FRn1By4ORZ0Yz-8" value="电影特征" style="rounded=1;whiteSpace=wrap;html=1;fontSize=16;" parent="1" vertex="1">
          <mxGeometry x="430" y="1740" width="189" height="60" as="geometry" />
        </mxCell>
        <mxCell id="4sxwdQ2FRn1By4ORZ0Yz-17" value="" style="shape=image;html=1;verticalAlign=top;verticalLabelPosition=bottom;labelBackgroundColor=#ffffff;imageAspect=0;aspect=fixed;image=https://cdn1.iconfinder.com/data/icons/CrystalClear/128x128/actions/button_ok.png" parent="1" vertex="1">
          <mxGeometry x="40" y="1132" width="48" height="48" as="geometry" />
        </mxCell>
        <mxCell id="4sxwdQ2FRn1By4ORZ0Yz-18" value="&lt;font style=&quot;font-size: 26px;&quot;&gt;&amp;nbsp; &amp;nbsp; &amp;nbsp; &amp;nbsp; &amp;nbsp; CNN&lt;/font&gt;" style="rounded=1;whiteSpace=wrap;html=1;fontSize=16;fillColor=#e1d5e7;strokeColor=#9673a6;" parent="1" vertex="1">
          <mxGeometry x="93" y="1280" width="170" height="80" as="geometry" />
        </mxCell>
        <mxCell id="4sxwdQ2FRn1By4ORZ0Yz-20" value="" style="shape=image;verticalLabelPosition=bottom;labelBackgroundColor=default;verticalAlign=top;aspect=fixed;imageAspect=0;image=data:image/png,iVBORw0KGgoAAAANSUhEUgAAAGAAAABgCAYAAADimHc4AAAABmJLR0QA/wD/AP+gvaeTAAAXpUlEQVR4nO1de5gUxbX/nR5mlp3d3ie4M92z7AIrRhcFwkuMLzRfECI+o1ETvYYQicZHvNFoPqNiIr6Sm8SYG4gQjVfUXBWNihjj26igvAQREgRZ2Jma2ffs9OwuO4+u+0d3z2vnuTPLzv0+ft+339dVXXW6pk7Vqapz6pwFjuIojuIoRg002g3IBZIk1QM4H8A3ATQCqNdftRLRAc75q0T0ksvlco5aI3PE/wsGOBwOmXN+F+d8CYAxGYqrANZxzm91u90Hj0Dz8kLRM0CSpPMArAUg5lhVAfAdxtgrhW9V4VDUDJAk6QYAvwMgGHmO2q+hqW4h7NWzUTa2DgDgP+yBu2cz9re9BmfXR7EkVAA3Mcb+cCTbnQuKlgH6yH8ReudXWRtxRvMKSNWz09Zj3Z/g3d13oLc/In1UABcU60woSgY4HA5ZVdU90MWOVD0b58xYiZIxFVnVHwz24rVPr4W7Z4uR5TObzV85ePCge2RaPHwImYsceaiqeg/0zq+yNubU+QBQYq7EwukrUWGdYGRVhEKh5YVvaf4oOgboW82rjfQZzSty6nwDJeZKzG9eEUlzzpc4HA65II0sIIqOAdD2+SZAW3Azyfx0kKrnQq6ZZyTHqKp6fv7NKyyKjgFEtMh4bqpbmDe9JlscjUWpyo0Wio4BnPPJxrM9j9EfpTEnNjk5VbnRQtExAIBkPJSV1OVNrLzEFpt05E2wwMh0rI8ghR5GANDNOd9BRO8S0TMF0MOYjQcOniepITSKbtudkQH6nnw5gO9BXxwTIBORDGAR5/x+SZLWAriTMdY6zDa1Q1ey9Q+2wzJm4jDJaOgb9CTSLiqkFUGSJJ2nH4iWInnnJ8IE4D8A7JRl+Vu5NkaW5VoAXiPNej7JlcQQsO44Gp/nTbDASDkDkulhxk2aB3vzAtQ2zMRYUZPPAz4Pug9uhXv36+j8cpNRtIpz/qwkSTcwxv47XQOamppK+vr6ziWiKznnCwFYjHf7217DCY5vD//X6TQMcM7fyovYCCCpTEzUw5TVNuDExctR2zArLbGuls347JXl6Os+ZGRxzvnFbrf7xcTvSpJ0Cuf8SiK6FEB1Kprnz1oLqWZOqtdp4erehJe3XGUkAyaTaWJraysbFrERwhAGJOphahtmYeZlD8M8NrvTaHCgF1v+9yZ0H9xqZPWazebjDx486HY4HE2qqn4XwHeRfEvIAWwkoiDn/AwAqLQ24OK5z6PEXJnTDzsc9GLdpovhG4gsRY8zxpbkROQIYAgDJElaA+D7gDbyv7b06aw730BwoBcfrLkc/d2RH/8+NHE3L9k3AewHsFYQhLVOp3OfzWYbLwjCbgDjAMBePQsLp6/MmgmHg178/dNr4e6JDILuYDDY3NHR4UlXbzQQ1xn6VvMA9AX35Ksfzyh2UqGrZTM2PZF2wPVwzp8loicZYx8B8ftFu91+ERE9B10MVlgnYH7zCkjVc9N+19W9Ce9+fkfsyAcRveZyuc6FppouKsTtbERRvAraPh/jJs3DsacvGzZha5WMnkPb0O91xWYHAKznnP+8rKxs2aFDh15SFCXpdtXv9+8RRbEVwGIANBjsxb/Zi3D3bEFYHcQYUynGCGOhqkH09h/El22vY9MXv8KW/Y9gMORLJHesKIr1iqKsBwpwuCgg4nZBRLSIc6199uYFeRO3Ny9A54GPjeRnRDTf5XJ1ZVs/EAg8b7FY7gMQOc66ujfC1b0xm+rdRPSxvrMCgCWSJIEx9gMU0UyIOwfE6mFqG2bmTbwmXnxV5dL5AJDQ+X3QZlAmBAA8HgwGm3Wx81jMuyWSJK1GEalgEhtiNx5KysfnTXyseExsMieCkiR9DcB1MVnXCIJg55wv45xvANAK4DCAfmjr1nrO+c1ms7mRMbZEX3BVfcQXLRNSqyIof7VJgh4mlG29pqamkv7+/kehdxLnfIPb7X5af/2o/pctVMbYUkmSBgFcq+ctkSSJGGNLMcriKHEURGymg0r+apNBX5QGEWVNsK+v704AJ+hJHxH9MM+mcMbY9YifCd8rhpkQ93Ei2m88d7VsGVo6R3QdjNLgnGelh5FleRoR/TSmTbflodiLRVGKo8RF+FXj2b379byJx9LIUg8zhnP+Z0RV0u+7XK4/5d2QKIqOCXHngIqKCjeAGwEI/T1O1DbOhrVqeHbsrgOf4Iv3VkbSRHSSKIrB2tranV6vN+l6IEnSLQAM5c0AEX1TUZS4nVNTU1NJaWnpHFEUF4ii+I2Kioo5oihOKisrG+v3+z3IvM/niqKsF0WxHsAMPW/GaJ0TkqkiHgXwAwAoq5mgqSJKc9PDBAa8+HD1FejvSSo5GIAHLBbL6paWlsNGpsPhOFZV1R0ASvWs2xljDxrv7Xb78UR0C4CLAaRqUDvn/EVVVR9sa2s7kKGZgj7yY4/rjx3pc8IQHX9VVdVWzvk1AEqCA73oce6A7bj5MJnHZkUwMODF1r/eBF/bv40sH4AuRO92igAWhsPhJaIohmpra3d4vd5wWVnZ80R0rF5mm644UyVJsoqi+GsiehzATADpGlJGRLMEQbhWFMWqurq697q7u8MpyhbFTBjCAJ/Pp4iiuAvAtwHQQK8b7j1voKJuSkZx1HXgE2x55obYzucALrNYLDeGw+F2ACcBMDR7sYyYQUTn6fkhIjpXURTW0NBgV1X1TQAXIEZGH2MpwcnV4zCrshrNYgXsY0vhD4XQH470tQnAKcFgcL7Val3f19fXl6LJo86ElJt9SZKuB/AwYg0yE+fC3rwANRNmYmyldkAd6HVHDDJdB+KsTyoRXe9yuSILQWNj49hAIPADALcBSMXNBxhjP5NluZZz/k8AxxsvvlpRjSUTJmKqWDmk4RzAZ75ePNb6Jbb7IkY1ENGuwcHBUzo7O5U0/TBq4ijtaUuW5XM5508hOmpzwSOMsRuTvcjACAbgASJaaOhxTES4sfFYXGDLbkPwgseJP7TsQ5hHBvDLjLELkH5EZ8UE3VfhMlVVzyKiqdBU5hzDdBLJeNxtaGiwh0Kh5Vk6R8SiSxCEKU6nsztVAbvdfiUR/U+mBt41pRln1R6TrtgQvNXZhl9+sTvS40R0icvlej5DtZRMaGhoqAsEAg8Q0eWIubmRAiEAj5tMpuWZLHAZDe29vb1+RVHWV1ZWPgZgH+eciCgEbbcyCM2Y8gkR/TYcDt9oMpkWQzMxWlVVrfT7/a8moytJ0jgieglAmZ71NoASJDhiXCbV41J7fWL1jJhkLYc/HMJuf0Q1PUNRlJVIL1KSrgkVFRVzwuHw/UR0MrK7nCAAmMk5v0YUxV2KouxNVbDg92QkSVoM4GU9GQYwhzG2LbGcLMtPcs6/qycPBQKBqeXl5cFAIPBrAD8CgCqzGU9PPxllY3KZeFH0hcO4fPtG9AaDAAAiOtvlcr2dRdVkMyGCU2dZsWi+iFnTSmEbr7XN3R7Clh0D2PCOgg+39scWT+skkg03c4KiKHvLy8vn6FtKAcCJiqI8HlvGZrMtJKLIHl8QhCs8Hs/nXq83JIriAgBzAeACm4xTasYNuy0WQUB3IIDPo7OgV1GUv2dRlSuKsr68vHx2zNYYE+st+OO9dvzoqlo0TxmL6koTzGMI5jGEmkoTph43FhcuqMDcGaXYtmsAXp8KaIP8HFEUtyebCSNy/DaZTDdBE08AcIosy5GrCePGjRMFQVhlpIlordPp3BBT/TTjYV7V8DvfQCwDiWhemqJxkCSphogi1zHmTLNi3coJmDPNmrHu3OlWrFs1AbNPMs6UEACsbWhosCeWHREGOJ3OfUT0X0aac/7gpEmTKgHAYrHcD8DwnGjnnN+cUD2y1ZlgzfxjM2FCaZQG5zwXvcpD0C8FTKy3YNUKCRVi9t1VKZqw6j4JDXJkvU7qJDJiCqhQKHQfNKMJANQNDg4ulyTpVER18oAmGzsTqlYZDxVjMm02MqMifv2okyTpAofDcaIkSSm5q9/Q+46RXnHrMTl1voFK0YQVt0YvBydzEhne6pYF2tra+mRZ/gnn/Fn949cDuBBRpr/CGPtrkqo9AOoAwBcKosZsSVIke/hCcXo/E4AXVVXbCEmS5AawD8B+ItrPOd8vCML+cDh8NhFZAG3BzUbspMLJM0pxykwrPtIWZsNJ5I/G+xFjAAC4XK7nJEl6C8DZ+rca9Fe9giBcm6KaGzoDDg30582AgwOptBAANBOsHcBpxmUEVVVBMdbARfNzdU8eikVnlhsMADQnkQgDRlwHrqrqjQCCsXmc89ucTqcrRZUPjIePuhOlU+5IoLGdiF4DsBfZGfgxa1pp5kIZMHt63AyKuxE44gzweDx7AbTEZA0Eg8GnU5VXVTWyI/p7pwd9oaxNyUPgD4fwekdbJE1Et7hcrkWMseMYY1ZVVScS0dc558sAPERE6wB8GkvjmNr8hUTduDgaR2YNMKAbWY6NySq1WCx3ALg9WXmPx/MPSZL2ApjSGwziCWcLrmtsGta3H29tgS8UmXx7XS7XuzGvwx6PpwXa4Iiz1kmS5Ef0hD6iGNEZIMvyFAB3JXl1syRJx6WoFuac/8JIPOtuxVuduV8QeLOzDevccdcT70T2ms3IB9u7hj8DDXg64mjEid6RZIDAOV+NqIVrC6Ly3QJN1Z0Ubrf7KSJ6AdDUjCv27cY6d/aeT8+5W3Hfvj0RRRzn/HmXy/VstvU553uM582fDmT93VTYvCNONbE/NjFiDJBleRmA0/VkkIiWEtH10PRDALDAbrdfmKq+2Wz+PhHtAoAw5/h9yxe4afd27PR5k+qUOYAdPi9u+Hx7oip6e2lp6dJc2i4IwpvG84Z30pkRssOGd/yRZyKKU06OiNOafst6F3Q7Aud8hdvt/rn+7hEA1+tFWwRBOMHpdCYdZg6HoyYcDr8WqxIAgHGWEkyrqIxsUbsCAezwedEVHLKx2QRgcZLDXjbt3w9d7fzUww7MnT68s8DGbf248ubI7A0JgtAYuwMsuDIOAERRfBrAiXryX2VlZVcYttnq6upNqqougbbIVXHOw4qivJuMjs/nG7DZbE8GAgFDj2MCgP5wGAf6+7Db78Nuvw8HBvowoMaZfgMAfmW326/au3evPxntdFAUxSeK4mQA0wFg264BnP+NCowtyU1geH1hLPsZQ6+iLT2c89WMsWdiy2Q9A1K4qY4B0AFgF+f8byaT6TlVVc8B8JReTQVwOmPswwRa3wewRk8eDofDzW1tbV+m+77D4WgKh8PXEdHVSO3S1AXgmXA4/NtM9DKhvr5eCofDnwGoAYDZJ5Vi1X0SKsXsxqzXF8YP72DYsjMyuXuDweBXEp1EMjIgCzfVWASgHbqMLdwfGGM3JCkn2O32jTGi5WXGWLZxHIS6uroTBEG4m4i+BQD6/v1el8u1CzncQc0ESZJ+AeBOI90gm7HiVhtOnpH+cLZxWz/u+FUbDrHIFlglovNcLtcQ41RaBuQRLgwAPIFAYEoqY7jNZpstCMIm6BsBVVUXeTye15KVTdG25QDu1pP3MMYKGo7GZrOdIQjCBgBDhP8pM61YdGY5Zk2zwn6MdpRibUFs2TmADe/4sXHbEIPMjam8RXNyU83REnRMSUnJxQD+koy+x+PZLEnSY9B8kCEIwsNNTU1v79u3bzBZ+SMJh8MxV1XVVxDtfCe0WV0NAB9t7Y/V7aRDLxF9J9nIN5BUpOgj/y/QOz8PS9Di8vLyXX6/f0+y75SVlW0ioqXQzgq1gUCg3+/3f5CsbCJEUTwTwJl68r1UC3mukGV5Ouf8DURv3zGTyXRGIBD4nclkGg/t1nYmURzinK8OhULf8ng829MVHLKs6/rqtca7PC1BJiJ6VJKkpKYtj8fTgRgZS0R36Iv9qMButx/POf8Hoot8B+f8662trfs7Ojo8jLGrzWZzIxH9BMAr0NQY/QD8APYAeJWIrhMEodHtdv8wG6/MISIoNlxYPpagi5YdwkFXEABqATwI3fU1EYyxVZIkLYW25SsD8Gtot/KOKOrr6yeHw+E3EfXk6SGibzDG4mavHnfuN/pf3ojr2cRwYYWyBAG4MtUsgHYyvh7RS1OXyrJ8Vs4fzQOSJNXrnW+EylEEQVjocrk+TVevEEjs3Ui4sEJZgnSYieiSVGUZYx8S0VojzTl/ZObMmfnbI7PA+PHjbQDehHa2AYB+VVUXO53Oj9NUKxgSPWQiIb0KZQkywDk/L01RBAKBn0K7SQ0AJ3g8nmTnh4JCluVai8XyBoApetYg5/wij8fz3kh/20BKN9URsAQ1pyvb0dHhIaJ7Ytpyd7JrHIXCpEmTKjnnr3POp+pZQQCXud3u/F2DckCiCIqEC0uw4gwLxllBR8bLnS6X6/cAPtOTFYFA4IG8G5EEkiRZDx8+/DI0fwNAOyxdzRj720h8Lx0SGVDQ+/CqGkcumKpcDEJE9GMjQURX2u3209NVyBXNzc0WAOsQVZVzzvm1jLGUZtKRREo31bbO/FUqbZ1RDWW2bqr63U3DeEJE9DAKpLVtbm629PT0vADgnJjsm9xudy5+xwVFSjfVQluCsnVT1XELtNAEADBdkqR8/YQBwNTd3f0U9GAkOm5njD1SANrDRmK0lCrowU0HBzkuXDAcv4woHlrVCadbkzyc85V+vz+rrZ2iKL7y8nJORGfrWfPKysoes1qtYlVV1TWiKP4UmrOeoXWdKoriqRUVFXJNTU1Lb29vog1AkGX5LwAuj8n7JWPs3uH/usIgThsqy7KDc34A+gm5gJYgQDNGP5joHZkKeriCzxC9UfFvABMRE1MuBcIAnhAE4S7d8kR2u30lEUVi73DOf+N2u3+Sy+8ZKaR1U210mLFu1YSsjRAGvL4wLlp2KFYfHousGWGz2RbqKuHhwAvge5zz04joP41Mzvmf3G73tSiSuEFDGKBbgv4FXR9UAEuQov9JCUVd0PyF16RihG45Wx3bTttXZ6P+9LMxfuo0lI7T1Db9He3o2LUDre+/hbbtqUMsENGTLpfrahRRvKBUURMXA/gb9EU6D0sQJ6JLzWbz+kAgcA00p7ykjLBaratjbQF2u/1CPWSZCQBEuR6zf3w7xp84PW0b2ndux+bfPQA/i7/Gwjl/3u12X4borYyiQE5uqjlagjiAuLihundkKkY4ATxotVpXK4pSaTKZdkPTpGL8idNx6t0PwFKenXokoPjwwT23o2PXjkhbwuHw5Cy85484RspNtZdzvsTtdr+Q7GUWjGiFFmERolyPrz+8OuvONxBQfHjjpqXwM+0GiC5+rspQ7YgjrWBXFGVvTU3NE5xzEcA0ZL7IFSKipwRBuIgxljLusNfrDSmK8nFtbe0fQ6FQJxGdhKjduQLRf9CGU++6HxX1DUnppIOppARVjZPR8mbEzNxcVVX1Z5/Pl/9NqwIiXzdVFYCHiD4koj8BuIYx9kS2P9Lr9Yb8fv/HlZWVK1VV7SCiaYi5AGD76myccMXVaSikR5nNjs5dO9HnYYB2VdKjKMpHmeodSRRVOHeHw1GqqupH0C9Ezf7x7Zh0zuK8aO7f8BK2/P4hI7meMZYfwQKjKALXGdCvKNYa6fFTp+VNM2HXdGKqcqOFomKAjojaurQ2/8iN1nFxWvDc4h0cARQjA7JyHcoWXI07c2WjEj+iKEYGRFTiA10deRNLoFFUoeuBImRArEq8/bP8LyUk0NifqtxooegYEBu5sfX9/P/hRev70dgcic4RxYCiY4AewiYEAG3bt6B9Z9qbfWnRvmMr2ndE/odAiIheTld+NFB0DNAjTUWiq2z+zX0Y9PXmTCeg+LD54UhAFnDO16TxTR41jIiHTL6IjdwY8Cvo2rML8rzTYCopyap+wNeLD+65Hd4v9xlZvaFQ6JL+/v6cvWVGGkXJgMTIjf3tbXB++C6qGiejzJb+qlD7jq345/LbYjtfJaJLMt1SHi0UlSoiEclU4nXTZ6H+9LMwfuo0WMdr/0qrr92jG2TejpX5QAbniGJAUTMAyE8lnsk5ohhQlCIoFoqi7BVFcQ20iLkzkZ1KfI3ZbL6ktbV1SKy6YkPRz4BY6DE7z1NV9Vwimoio3aAVwJdE9CoRvVyMu52jOIqjOIoixP8BO3K4Czxb7V4AAAAASUVORK5CYII=;" parent="1" vertex="1">
          <mxGeometry x="110" y="1286" width="68" height="68" as="geometry" />
        </mxCell>
        <mxCell id="V0iQPNpV9xVYlXSdjF5p-1" value="" style="shape=image;verticalLabelPosition=bottom;labelBackgroundColor=default;verticalAlign=top;aspect=fixed;imageAspect=0;image=data:image/png,iVBORw0KGgoAAAANSUhEUgAAAGQAAABkCAYAAABw4pVUAAAABmJLR0QA/wD/AP+gvaeTAAAXcElEQVR4nO1deXxU1dl+zp0ls0/2kA0IBDCGPQjKFnZwK1SouOFGf63WVrpof/RrVZSq/dW2alH4aEGwigsIiKgoouwgEBaTAFkg62SZZJLMntnuPd8fk8x2Z7JAZjKk3/NP7rz3nHvPzJNzznve9z3vIehnmM3msZTSH3McN50QktohrgRwklK6Xa1WX+nP9kUapL9erNfrhzEMsw7A7V20g1JKt1NK/xAbG1sZweb1G/qFEKPReBeA9wGoe1KeUmoCsFytVu8La8OiAEykX2gymeYA+AQ9JAMACCFKAJ9XVVU9ELaGRQkiSojBYIinlH4MIKa3dQkhjEql2rxr1645YWha1EAY4fetBZAYKKzX6LD7w/0ouayBQCjC6PHZWLxsJpKS/TuRUCiUjBs3bn1aWtr8+vr62kg1OpIQROpFLS0tKoFAsA2AyFde+EMF/vjMJpSUa2Ew2dFmaEdpaR327yvA8BFpSE1L8HuOXC5PVCrl9suXS87q9XpbpNofKURsyBKJRMsASH1lFosNf335Q7TbnbzyNpsDr679ALU1zbx7s2bNmcNxjklha2w/IpJzyMxAwf59BTAa2gEACSox/vHkKLy8cgSSYsUAALvNiXc3f817UHp6+tiEhMS0zMzMtDC3OeKIJCE3BwrOni7zXD9+ezomjFBham4s/vxYNghxa+RnTpfCYLD41RMKhZL58xdkEsIOC3ObI46IEEIpFSEIITU1TZ7rCdlKz/XITDlyBsvddTmK0kv8+Xvo0KHxAElFBOfBSCAihFgslnwAcl+ZwWCBvs0MAJCKBUiJ89eEs1K9041OZ+A9MyUlJY5SKszIyOjxeuZGQEQI4ThuVaCs6AevJWRYqgRMQEukYu8/PqX8ZyYkJCRMnTotYd68ecl919L+R9jXIXq9fj6AuwLlh7674LmenMP/J+d8WBAK+f83EydO+tG//735RwDwz3/+0wzgPCHkLIDdCoXiKCEkCI3Rj2smpLGxUS6RSMSBcrVabSGEODrLMAzzVmAZTW0zzpwqBQAwhGBeHm+tCLuT8zZS2O00oQAwg1I6A8CvTSbTVaPR+LJSqdx6oxHTY0IMBkM2gEcYhrmDUjoKAXNCJ0wmE4xGYyuAk4SQQZTSkYFldnx0GJRz/04zx8YiLYFvSdGbvWsTmazXlpbhAN4xmUwPm0ym5UqlsqnbGlGCbgmpr6+XyeXyvxJCfgZARIMN6HzEA7gzWNnLF6tx6NsfPJ+Xz0nllQGAJr3Dc52SGt+TdwbDLLvddtxsNs9QKBSN1/qQSKLLSd1sNg9SKpVHCCFPIcDkcS2w25x4+/Wd6CRqzoR43JTJ72gcpahu9FpFOs0nrnYrrK06NFdVo7m6Bk01tbCZjF2+UyyOyW5raztw9913y663/ZFAyB5CKZWaTKbPAOT1xYvsNif+9uI7qKltBQCo5EL8csngoGXLNFY4XO45RMAQvPLsOjToLGg2OEA5fvmk2BjcPCoJMxfciknTxnkWlZ1Qq9W5TzzxxGtFRUW/q6qqimr7V0hCTCbTWgC3hLrvaLfBZbPy5DFKNQQBk3Bzkx6v/mkzrlS3AQAIIfjtsiGIUwbvdGdKvOsOlqP4obytyy/RrLfj8CkNDp/6BGNyv8fvX1gBtdq/5+Xl5f2EEHYPgG8ARO1EH5QQq9Wa6XK5ngqU22wOfPjuNzj4zTnoTfagD2QIwYiseCx7eBGm3JaDsksVeGXNNrQavOVX3pGO/HGh5wW92RXynlwqhEomgJAhoATQGRyw2b3dpuiiBmuffw9/ff1nYHwWNzKZLOmhhx6+dcuWdys1Gk15yBf0M4IS4nK5HgAg8ZXZbU784Zl3cLVc0+UDOUpRWtGCl9dsw8wZOTh5shTOjuFHKCT4zdKhuGMKX831xfLZg9BidGtZI9JlyE6XYkiKDPEqIcRB1iTVje3Yd0aHTw5rwXIUZSUanDlViim35fiVy8ublL1165YcADcWIQAWBQp2bj/iRwYRicEI+dVZmw2dA/2Ro5c9crVCiJcezcbYYUpenUAkx4qx5pHh3ZbrxJBBUjxxdyY4jmLHYS0AoLioikdIYmJCPAB5WlpaYn19va7HL4ggghJCCBkWqLIeOVTouU67YwmSp80CCD9GgrW1o3rrehhrajyy7DQZXnosG6lB1ht9ifREb6d2OvjDnkgUIwGAmBgkAIhKQoKqvZTSpECZrtmrXiZOnhaUDAAQSKRIyF/g+Zw3UoV1v8oJOxkAUKfzKlAJCSrefbPZrSNzHKJWBQ41ZPFsFRznnTiJoGtThvqm0fj9fUNhsbFYMjUFQmH4o43MNhbfnvdqYyNGZfDK2Gx2GwBwnCDSsQQ9RngaRghun8zrZGHFtm8a0Gp0r+4ZhsGQoXwjcE5OTh6AvZTS4CpiFCDicVnhgu8IynEcXn9tJ69MYmLiyBkzZiYxDBNar+5nDBhCHrs9HY8tSgPTwcyFc1dQXlbHKzdjxoyhgCs90u3rKQYMISIBwcML0jFrfJxHVnKphlcuI2NwCqVITElJCWqt7m8MGEI6kaD2umiCqb4CgVsjEQqFcbybUYABRYjNzuHoRZPnc0YmX7EwGAwGABAKue5XqP2AAUOI3uzEqvUlaGx2hwypYxUYP5G/2r94sUgDAJSK+m0rRlcYMIR8dboFZbXe+K2f/vx2iGP8rckOh8O8Y8f2SgCg1BaVqu+AIWR0lhzE59tkDuavQ0pKSo5arVYWAFhWyI8tigIMIEKUyB/jnaeLi/gbrlpbW1oAgFLGXl9f3xK51vUcA4YQABic4g2us5j5jkGJRCoBAIGAq0KUOqkGDCGUUpyvbPd8TkjkGxdNJqMZAAgB39UZJYhaI1tvUF5nxdajFhR1uHoFAgZ5t/Cij1BVVdUEACw7gI2LDfs/R/OJw0iamo/UBbwAxbCjsdWBp964BCfrHYHuWnIbr4dwHMfu2bO7DAAGtHGx+cQRcA4HdCeP9EV7eg2jxelHxsI7bsGjKxfyytXW1p6trKy0AoBAIDBHroW9w3UTkjR1JhhxDBKn5vdFe3qNoT5R8hKJGE+tWgyBwP9rUUrptm3vfdbxkVMoFFGpYQF9MGSlLrirX4aqTrSZvCGnoWKAi4qKvt627f0KACAEdRcvXnQELRgFCEUIGyhwh9S4xZR1dek1jDE04KUvWiCXiTF5lAo5gwgSZUEi3K4TDpbijb3ePYjZI/lWdbvdbvjLX17ZM3z4cLnNZnNpNA2XruedlFKBwWDgqXBWq9WelpZ23dpbUHuO0WisBDDUV/aLn74JTa37yw+auwgps+aDBFFWHK0t0H60ES0arZ88Lk6BYUMTkZ4iR3KcGEmqGCilBGopgUpKIBNRCBhAJqQhXb52F4HeRlCt41BUZcG+wxVobfUaE59fuwKTJo/q6Xd3ANADMAAwEEJaKKWNlFINwzANLMuWicXiy1KptNlsNv+IUvowgFwAGQgdVmsghFzhOO4LSul/YmNjr/a0MZ0I+s0NBsMBQshcX9n2Dw7h/XcP9Pb5EcPipdOw8me3h+PRLK5t25yTELJBoVCsJoS0d1/cjVCT+heBgiXLpmH02Kwet4YwBLPmjENO7hCIROFT+5OSY/HMH+4NFxnAte9hFFFKnzYYDEfNZnNKTysF7SEWiyWV47grlFK/cBmn04XdO47hu28vQNvQCpblzwsSiRijcjKxbPlMjJvgNn+7XCyatHrUaXSor2uBTmeA0WCB0WB1/zVa4XS44OhwKFksNgTbyiCOESE+XonYOAVGjEzHxEkjMGZcFsTi6w7MDyssFktxYWHhrQsXLrR0VzakT8BgMLxECHmub5vWO7Asx1NhewKO42C12iFgGEh7v9mnR88OhFgk5Jn7fXH58qUdy5ff93B30fchCaGUivR6/bcCgWBGbxocabS3O3DmVAkunHUHNej1FhgNlqA9zBdSqRhyhRRKpQxyhQQKhQQqtRyDUuMxKDUeqanxSMtIhFTqdgmfOnkZ2z84hKtXGvxi1HwRH6/ErHnjcf+DcxAj8SeHZVnnb36z6tGtW//zMYJosZ3o0mtmMBjiLRbLfoVC0Sd7RPoSlFLs+/w0Pnz/IAz68Cy8GYbB0KwUpAyKw8njPdeWR4zKwKuvreT1mEOHDn3w9NNPvlZVVXchRNXuE5gdPHhQIpGIN+Xk5C5jGKbX/Z/jOPu11OsOb73xKfbvKwh6jzAEcpkk6D2b3QGXM+Q/aPdgCIQxUp7tnrqc4JzeRer9D83B/Sv8M0lptY2X5s6d/aLLRT+vr68PumbpVv2ZPXu2LTc39/GJE8ftWbZs+eKbb84Zr1KpUyUSiZoQwtNAXC5nu8Vi1bW2ttQcOHDg+IYN6wvT0lIlM2fmp2Vnj0xNTk6Oi42NjVMqlfESSYxMLI6RicViuUgkkhFCiFAolAR7ri9OHrvoR0ZqaizumjUMY4dIkBkHqCQAYfkJbQAAjACUMLA5CWxOCoMNMNoAQzuHZr0LTXoH6nVWXK1qQUOD3m/oSxqcjpSHnoRQwY+PoBxF87HvUP+V20Jz5FAhjxClUpVMKRWIxRgMoCRY83rj6GcyMjJGMwy9iVLaa1WQEML2tl5aWqZk7969/5BIJLG+8v95djOKC90ewfxJ6XjuvlQImL6PWbA4CEqaGXx/2Qiz1YnW2+6FQxk6TwHncKBwzbMAALFYhE/2vuB3n2VZ59ixuY8wDNFWV9d9F+wZvVkgcBqNpjAjI6NcKKRDnE6SxjBUBffGHt6vwXHESQixCAScARBVVldXN+bm5ora2tpUYjGn4DixDHBKASJlWSJmGEZECCvmOEYEgBDCid56660VgWQAQOXVBs/1L+9MCgsZACAXU+Sls8hLd8fU/dbmTwblKIjPu33NScEmfkLcXn+Oo4pQ7+z1ik2j0bTD3d2Cdrmu0GHU06EHezOMRuN0ALOC3XOx3jlAJe+f3DN1n++C7vujSLx1BtLvuqdXdQkhwSc4RLcLdzUCep7LyeJvr26H3eadHyoaemyV6FO0nv0elOPQUvB9r+tSSkN26agkRK/XxwHgeZk2bfzSbydXjJhBQoidvOFG8sx5EClVSMmf233hXiAqfcuEkKkIaFtzkx77vjjt+Tw/fwRWTJV4ss9FGimzFyBl9oLuC/YSUUkI3LlK/HCuoNyTHyUvJwH/s5g31w8IROWQxTAM79f29XuMHhz+/Yr9hagkhFLKs4UolV7feUV9/0zkkUBUEkII4TleRo/xio4V63H+StdJZ25URB0hlFIRpXRFoLy0VONbBqW13boWbkhEHSEmk2kyAhL1t7c78O4mb/7eMcOUuHNKZHf5RgpRp2URQnIDfRkXzpbDbHbPGxmDFPj7k6MgEkTlfpvrRtT1EEopLzNNQ32r53p6jnLAkgFEISEAeP5RX0dPQ2vUhuX2CaKREF7qpJxcb+a5I4Vt2LhXA7uj7wPvogFRR4hQKDyHgM00w7PTPAFwlFJ8dLAB73zFTwowEBB1hMhkMg0AXij9qmfu8csQJ4pAQpv+QNRpWR34AoBfOP2VsjqP0ycxVowH5kbmpAq7k8Puo02QxjDARA5+O0vDgKgkhFKqCswseqXcO0TNm5AAWUz4O7el3YXVm66guNJtR8uKKYR69PiQ5SnrzRwRLJ6M0mA5Vf0RdUNWB3iqb1ur17wViWRotc02/OLNEg8ZANB8+Gu4TMF3U1OWhfaI102ePIifucNut+u7e29U9hBCiClQFuOj+lY1hnfPZkGpAS++exVmm3+4kLmuHsWvPt+jZ8yaM44nMxr1WgDoKh99VBJCKa0LHLLGjh+G3Z8cAwB8eqIJLEex6JYkjMyU+QU5UEphsLjQanKiRmtDeZ0VV+qs4Cjw66VDkJ7Yde/adVSL9XtqwXb4XmLEAuTPGo1vvinsNhqyE7ljsrBk6TSe/NKlS+c62hgynDRaCTkeSMiEvBEYPTYLxYWVoBzw2YlmfHaiGYQQxCqEkIgZOJwUerPT82MGYueRRjx9z5CQ7930pQbbDngjWpLjJfjj2keRlZ2B6bMnYOd7X6OkXOt3ckMnCAOkJsoxe9EU3HPvTF7EP8uy9nfe2fw9AHAcfwToRFQSEhsbW2A0Gq8AyO6UMQzBH9c8iH+88gHOFFR4ylJK/ba1dYUEVWh371endX5k5AxPwOq1KxHXkUxz/MRsjJ/obk6wIDzKCEMmBgWAgoLTn58/f14PAGIxrQ9VLioJ6cCrADb7CuRyCZ57+XEUnSvB0X3HcblMi1ptu9/hLwAgFjJITYxBSqICBZd04Dp6TLCDYwCgWe/Auk+9yc6mTxmGX/9pRchtDlTQu8AKrVZ7edWqpz8FAEKIi1JRdaiyUUuIUqncYjKZViBIbNaYiTdhzMSbALhVTVObHpzLBbFIALFMBqFEChAG7VY7lv94LQBAEsNgeGrw7LBv7KqGtWMCH56V1CUZvYVWqy158smfv24ymVgA4DhSUlMTektC1BJCCKFGo3GZ3W4/EhMTwzvhzVNOIIQqMXjqcl8r8dBkKe+cKwAoqjDjRLFbG2UYgqd+t6xPyOA4zn72bMGXv/rVU7s6ySCENNXWai52VS9qCQEAlUrVotfrpzc3N+9LSkqa0tv6DQ3e7eihwoU+OuidN+YvmoTsEfydvDqdrsxkMrWmpKRkSyQSNcMwPMYopdRut+sNBkNjSUnJ+S1bNh0/c+aMJ5EwIaRJLJYeA9Dl4jCqCQGA2NjYtuzs7Pw1a9Y8l5+fv0KtVgc/dCQI2tu929HVCv5XrW5sx8lL7oUewzBYei9/b5LRaNQsXbrkZZ1O1zPNIQCEEJbjSEltraYY3ZAB3CCHMra2trKlpaXH3n777QKdrqlcJpMaCWHsQqFQLBKJpKHqlZXUeg4fG52lxJSASX3X0Sb8cNWtgU6bORoL7+Adl0I3btzw5tGjR5oAgBDoCIEO7n9kIYLvHqAAbISQNoah5RzHnNZoNHXoYTqoqO8hnegI1D784YcfV3z88Y7zhHCe2K2srCzZCy+8eOctt0z+sW8d1icHSjCN1PfgmPzZY3n3q6urz2zc+L8lAEApY6it1XyHLraj9QVuGEI60XGOeu3gwYPjOI7LABBfWVkZ19bWxjuGh/FZwVsDzCAcB1RqvfFduaP98iQAAPbs2f1V57XT6SxAmMkAbkBCOlFTU9MGwEPCggULKYDHfcv4npBQ2eivada32Dxex/h4JRRK/5HP5XLZ3nvvP+UAQAhqtVptRI7ei1Zrb6/BcRzPhZiTO9izoaa01oKL1d5YrrNl3kC7wUES9+v1ek1nwky7nS3jFQgTBgwharW6EIBfOKNSJcOtHafsUErxp83l+PZ8C44Xt2Grjwt48q038Z7X0tJSC7hX1lqttplXIEy4YYesQBBCHEaj8WsAP/GVP7JyIS6cu4L2dgf0Zif+/F6FX734eCXmLeTv+i4uLu44r4nqEcGEmQOmhwAAx3GbAmVp6Ql47qUVUCj5u8iU8hisfv4BBB7p63K5bOvXrzvjfiYT0fy+Ay5SwGg0fgtgTqDcoDfjiz0nUXy+DJzTiVE5g3H38rlITOIbHAsLC7+8//573wcAp5M72djYWBX+lrsxEAkZRSk9TQjh54ntAWw2m37x4sW/02iq2wkhrpqaut0AInYAzIAasgBApVKVAriP47he/4gcx9nXrXvzdY2muh0ACKFXEUEygAFICACo1ep9NTU1i51OZ0jPXCAcDofpX//619+3bt3SGTnZnphYXxSmJobEDWHLuhZs2LChPDU1dZ9CoRgZHx8/hAT6hDtAKaVVVVWnVq9+9vWdOz+pBtwGQZbF4bIyU8TTyQ64OSQQKSkpydOmTbv7wQcfmJ6dnT1CqVQlAWCsVqu+oqKibM+e3QX793/tOWudUsYuFNpPVFU198v56wOeEADIyMiQAhhDCDcMob8zJQS1LhfOh8rUEwn8VxDSiYyMDCmlNFMopImUQg4AlApsAgHbbDY76nQ6XY/nnP/Hfwn+DzzvBt4q0PDkAAAAAElFTkSuQmCC;" vertex="1" parent="1">
          <mxGeometry x="900" y="2040" width="100" height="100" as="geometry" />
        </mxCell>
        <mxCell id="V0iQPNpV9xVYlXSdjF5p-2" value="" style="shape=image;verticalLabelPosition=bottom;labelBackgroundColor=default;verticalAlign=top;aspect=fixed;imageAspect=0;image=data:image/png,iVBORw0KGgoAAAANSUhEUgAAAGQAAABkCAYAAABw4pVUAAAABmJLR0QA/wD/AP+gvaeTAAAWY0lEQVR4nO1deXgT17X/3RlJlm1JlmzL+wJesM2+hWBD2ZpH8wJJIJAX2vBemjRtP9qkTUq65L3Xl7QvSSlt0iRN85o0e5MmfJCFlgYIEArEZgsQwAuYxQveV2kky1rnvj9kSdbM2JZkjSBf+f2lOXNn7hmdufeee7YBruM6ruM6ruM6IgO52gyEi/7+/gksyy4GMBlAMYBcAMkAEuB9ngFCiIlS2gLgAoA6AId0Ol391eI5HHwpBGIymeawLLueUroaQH6Et2mjlG4nhLyj1WqrCCE0mjxGC9esQCilrNVqvZPn+Z8SQmZG+fbnAGzWarVvE0JcUb73uHBNCsRkMi1nGOZ5ACUyd9UE4GGdTvehzP2EjGtKIGazORnAi4SQu2LZL6V0J8uy92k0mo5Y9iuFa0YgZrN5PiHkPYyxRjidLlyob0Xt2SY0N3eho60PJpMVTqcbPE+hViuh0yUgMysFObmpmDw1H6VleVDFKUft3+Px9CiVynUajWZfNJ8rXFwTAuE47jYAWwCoR2pz+tQlfLrnFA5X1sJud4Z1/7g4JW6YX4plN83EnBsmgRDpx6aU8jab7cHMzMwXw+ogirjqAuE47h4ArwJgpc4fP3oe77y1F5cvtkelv7z8NKy7eykWLp42UhPa3t7+eElJyS+j0mGYuKoC4ThuJYAPASiE5/p6Ofzhue04fvT8uPpQsgxcHl5Enz6zEA8+vArpGQapy+jZs2cfXbBgwa/H1XkEkHwrYwGTyTSXEPIxgDjhuS9OXsT/PPoGLl8a/6jgqXe7kZSogNMdEExnRz/27TmF7OwU5OalCS8jRqNx6axZs5q2bdt2etxMhIGrIpCuri6NUqncDSBDeG7/vi+w+cn3MDgY3joxFhyugDAovFODy+XGZ4dqoNUmYFJpTlB7QgiTm5u71GKxfPr555+3RpWZUXBVpiyO414DcK+QfuDT03hm8zbQobeawPvnxQLf+d5KrLx9voje2Nh4Yvr06SsAdMaCj5iPEI7jygH8HoKX4czpy/j1k++Bl5jvY4GTJy5gYkEmcnKNQXS9Xp9lMBice/bsqQLglpsPRu4OhoNSSgA8D4EwzOYBPLNpK9wuj5dwFcYt5Smef/oD9HSbRefuvvvu+1JSUipiwUdMBcJx3C0A5grpL/1hB/r6LAHCVTL7Wa2DeP4ZsRVFq9VmPPHEE2sBZMvNQ0wFQgj5sZBWW92EyoPVsWRjVHxx8iKOVNWJ6CtWrFjJsuxsyPyfxUwgHMeVAlgspL/1+if+RfxawTtv7hXxpNfrcx988MHZiNz8HxJiJhBK6deFtAv1raitbpK1XwVLYNCI9p2S8JlUmho7cerERdH51atXVwAoiyZ/QsRMIISQtULa3t0nZO935XwjphZoQ2o7fFRI8VZWVjaPZVk9AKPoZJQQE4FYLBYjBG+Wx8Oj6rNaWftNiGNwz9eyUDFZH/a1x46eh8Me7LtSq9X6NWvWZAHIixKLIsRqhCyCQJm9fKkdZpNV1k433J4HvUaJRdMNSFCHt+VyOlyoqW4U0W+55ZYSfNkFwvP8LCFN7rXj5nmpWDnfO7MkqFn/73BQV9MsohUWFk6E102gGyeLkojVCCkWEhob5HPOzS7W4aE1wcrQPcuzkKIb3UklxOVLbSJaampq+tBPkUUyGoiJQAghBUJae1uvLH19ZZoBm74zCXHK4EdLULP40doJIGE8cUd7n4im1+t9ApG0248XsRohKUJCbw8X1Q4UCoL7V+Tg8W8WQslK214qpurx3RW5Id9TyoyiUqk0Qz9DU93CRGgK+viRKCTYo2hen1Wkw/dX5aIwK2HMtnctzYAmnsWz7zfB7RFvSH2meQCwO1yglAa5fBUKhZplWeLxeDSii6OAWAkkXkhwusZnOFUoCOaXJuHOJRmYHuI+w4cV843IS4vHM9sa0NhhDzo3fGxRnsLlckOlCqw9hBCSkpKi6OrqUo2H/5EQK4GIgtFUSgUG4Qj5BixDkJ2qxpQJiZhRqEXFFD20CZGzP61Agz9tnIodh7vx4WddaO4aFLUhhECpFPfBcZwHMv13sRKI6Gnj1Epg2BQ9tyQJD6zKg3XQjQG7B24PRXwcg8Q4FtoEBYx6FRQjrA2RQsESrFqYhtsXGHH6khW/+stldJkCU6kqTiGKUOF53mO323l4BxMLwBNVnqJ5MylwHLcRQJaQnpgYD8DkP05KVCA/fcQoIFlBCMHMIi0yU+KCBJKYIOaHYRi2srLy/uXLl78+MDAQdW+arFqW2Wz+BYDfQsLlZExLCjrWxF+1eAs/1KpgHlIFPPowbdq0Zfv3778fMnhuZBMIx3HlhJD/Gul8WnqwfcmYJMsaGRbS9ME8jBAiBAAoLS1dvGXLlp8iyv5NWQQy5Kr9EyR89g2X2/HWa5+ITCcZKVdfIIVZwcpgw6UOvPrSx6irkTbzLFmy5GeZmZkLo8mDLPPExo0bywE8KqRvffcANv9qC2qrm9DfHzAsMoRg/b9kIVkbnmkj2lApCf5a1e0/5jgbztddwd7dJ2Gx2DDnhklB7ZVKpVqhUPTt3bu3DkBUdrqyjBBCyL8JabXVTXj7zb2gvHjaVasIJqSLtioxx4T0BLAjaHI7th9B5SGxq/mmm24qBzAHUfov5Zqypgtpu/5+zO8AmlWkww/vyEdZvncDv3xuatRV2kjAMMCqCiMIISjI0uCBVXkoH+ZL2fX346JrjEZjLrwbX5EmGQlkUXsJIUVCn3R9fSD474FVeSjIiseqhWkYGHQjMT5W26Gx8cDqfNx7c7afp2WzknHHY18AAOrPXRG112q1GUOmlDwALePtX64RIpp/LJzN/1ubEFi6riVh+DCcJ11i4PfgoBNud/A+kGVZ38IXvltSAnIJxC6kJSQEYqodzqsTnRgJHK7ASFcpWSgUwXoQz/Mej8dDAUTF2CiLQBiG6RbSMrOS/b9rmwfk6FYW1DYGtMHsTPFG0eFw+CL8oqKxyjVCzghpZZMDHrxjdWI/w7WKY+cC5p3SyeKQrJ6eHp/jPSrDXi6BiGJoFi6a6v994EwfWrpFs9o1B5PVhY+PBTybFUvE2dlNTU0NQz9DN12PAlkEolQqP4LgjcnNT8OsOUUAALeH4pdvXYJpQPZg8ohhc/D45Z8vY2DQy+PECWmYPlPkicbWrVt9urBJdDICyKb8cxx3EMBXhtMaGzrwyA9egtPpdY8kqFlMyU8EBdDQbseaRWn4+rJMuVgaFTuOdOPN3a3ITYuHWsmgpskKbuiFIQzB/266F9NnBAvEYrF0ZGdn/2josAaAaKoOF3Jae38rJEyYmIEHHl4FlvV2a7N7cPw8h8/Pc+jlnHh9ZyvsjthrYJRSvLyjBT1mF05d4HC41hQQBiG49/6bRcIAgN27d+8YdijepEQA2QSi1Wr/BuCYkL5k2Qw8/uQ9mDBRlM0Gl4eipTf2a0uP2QWLTTx9pmcY8NP/XodVaxaIzlmt1s6HHnrowNChBUB/NHiRTSCEEEoIuU9qTzJjViGeeWGD5HWXWm2SdDlxsU26z6d+8y1ULJwiolNK6QsvvPDKkCsX8FYcigpkdVBptdoaQsiDUudGSv4/Xh/d8KBQcOqCdJ8Oh3RdmoMHD77/1FNP1QwdWgE0SDaMALLHZel0ulfMZvNjQvqgTVogn53tlwzPkQuUUhw6Kz3bSL00J06c2Hnrrbd+4Lsc3mk5agtfTALlDAaDKE/MPiittjucPPafEkcMyoUT9RZ09Em/HDabmMc9e/acHHZYjShn58Yq2FoUODVaHvorO1tillX17qcjFyewS4zipKQkX+TDeXgFElXERCCUUpFAbLaRtamufie2V4nMYVHHgdN9ODnC+gEAgxKjWKPR+CzZshQTiIlAGIYJa4QAwIvbr6ClSz4VuNvkxHMfiNMNhkNqytJoNL4RIou/OVZTliiCwTmCBuODy83jhy+eQ1d/dEtsAIDZ6saPX65Hv2V0HqR4VAXiSmVx5MRqhIieTKka+3n6OBc2PFuLo3VRMRMBAGoardjwXC2aOsSho0JIFT1zuVy+Z/nyCoRSKnr6wMgfHX0WFx595SJe/lsLrIORR206nBTv7e/AD35/Du29oRlmEyV4tNv9iYeyROzEyn8qqplbXJILhYIVuUSlQCnF1kMdKM5ORLJegewUNVJ0SoxQGC4IpgE32nsc6DI58M6eNn+5plBQWiZOJayurvapZbIY3WIiEK1We8FisXAYlpcXH69C6eQ8VJ8JbZPrdlPkpKnQ3G1Hj9kJlYJBhkEFg1YFXSILlcI72F1uCuugG/0WNzr6HRh0egU+MT0Bg2G4jvPy00TRlZRS+uGHH/o0gagGWfsQE4EQQijHcf8AcNtw+uq1C0MWCADkpKphGeTRb3XC6ebR3G1H85Cji4CAEAqJsC9o1CwmZoYX93XHnV8R0bq7uy9euXLFp/rJYuOJZeGAPwtpc+dNwvSZheHcA9MmJkIrEalCIS2MeBWLmUW6kKY3HwqKMrF42QwRvbKy8pC/uyg5pISImUA0Gs3fINhMEULwyM/uREpq6BnGSgWD2cU6ZKeOrRQka5WYW6LzJ4B6pCQm4jMej/78G36fjQ8ul8u2adOmw0OHvZCpdlYsR4gDgCgaXm/QYNPT3xYVDhsNCpagNDcR80qSkJWsRpwyoPCoWAbpehVmF+kwq0jnX1tCQXKKDk/8+j7JqPd9+/Z9VFdX5wuXiZp1V4iYRqkRQpqH/CNBr3d6hgGbf/cdvPnaJ9iz6wR4PrTFV5ugQFm+9xEo9U5bTDhzU4AvLFo6Hfd++2YkJ4vzFSml9Pz5877R7QIw+hZ/HJA9oJZSqrBarWsppRshUbxMiJYr3dj67gEcPXwuyN7FEIJdm+eMmPIcCpb/+ERQydj4+DjMvqEYd65bhILCsUNze3t7mxoaGl5cunTp7+Qq4i+bQCilcRzH3TWUtDNprPZutweHDpzF9vcrJcvDpuVOxOaffxWZzgaonOEpOE5VEjriJuAnT/4DnY3iskv5E9Jx+x0VWLxshmSSpwQ6KKUv8Tz/rMFgiOriLotAzGbzNwghzyKEMkaDNgf2fnISH73/Gbq7BAF0BNClZMCYWwRtchpuW1WC7IIMqO190JvOQcs1gtCRpjeCAU02+g0lsCVkovVSO/66vR42iwk9zRfR39kCKrg2Sa/BLbfOw4pb50OXNHbOO4A+ABt1Ot0boTQOBVEViNVqTed5/o8AVo3VtqvThJ07jmHX349hYCDYqsswLPRp2UibWAJ1QmBOL5uagSXLA1+wUHgGoTNfht5UD4XLu9662XhwSQUw6SfBrQzUK9j/yXmcqw7UV3E57ehtbUB38yV43MEGTKVSgYWLpmLtusXIzRtb2eB5fpdSqfxWYmKiuDhKmIiaQEwmUwHDMLsBFI3W7vLFdmz/oBIH/3EGHkFJWIUqDqk5BTDmFIJVilPcNDo1/v3+G0V0QimUzQ2gPA/3hAJQiYImb//pCCwWsQ3L43Gjr60RXc0X4bIHBzsQhmDuDZNw66pyzJw96mPB4/F0KpXK5RqNZlyxWVERiMlkms0wzE6MUCGH5ymOHq7DR+9XSubrxWuSYMwtgiEjF4QZXU39xr3zkGQI7Lo9A05wVa2wVXeDAogvMkC/KA9sUiDa3tw/iL+8LopICgKlPEydLehqvohBi3hZKC7Jweq1C1GxcDKYEXh0u91cZ2fnbWVlZQckG4SAcQtkYGAgy+PxHMcIGUQH95/BO2/tRXub0E9OoE1OQ1q+d30IlZVFXy3GlBnerriqVliPt4EfqulOGALKUxAFA+3cTOgqcgAC1Jxuw8F9F0J+Jmt/F7qaLoLr7YQw8zk9w4Cvr1+GpTfNlPzshdPptB44cGDxmjVrTopOhoBxmZAppWq73b4bQKnwnKnfit/8agu2bTkIqyVgfScMg+SMPORPmYO0/GLExWsQznvBKhgUlXgHIm9zwVbf5//PCCEA9U5hCVOMUKV715BTx5vR3xd6vJcqPhGGjFzo03NAKQ/HgMXv4x+w2nGkqg7naq9gxqwCxCcEf0uAZVmV0WhcwXHcRydPngxbAxvXCLFYLM9RSn8gpLe19uKx/3wDnR2B8BqFSo2UrAlIzS2AUhV5xYa4OAW+uaECDONl3Vbbg76dlwAERojhawVInOpdjHme4o0/VsFhj9zS4R5SAHpaG+ByBBSQVGMSfvHUNyUX/pqamn3l5eWr4Y1qDBkRjxCLxTKFUvoqBOaX7i4TfvLwy8PqYREY84pRMH0+dCnpYNnxGQc8Hh4TClKQqBl6MxmCgS+8kTi+EZK0IAdsonKIHyvOnhpfPALDKqAxGGHMnghQChvnnX5tNgcOHTiLioVToNUGW5ONRuNEt9vdW1VV9TnC8J1EbMuilL4AgenFYXfhicfegWkoB51RKFEwsxzZxdPAjFMQw3GlKTDyPJyE5mQO0FqaohJyCwAgrAKZRVNRMHMBWIVXC7RwNjzx2J8xKAiIIISQDRs2fA+AqN7kaIhIICaTaS6AJUL622/uQcNl7y6bYVgUziiHLkUcVD1etDQPE4hZLBD3MCG1NkffSq5NTkPhrAX+l+xKczfeeHW3qJ3RaCx85JFHboFERb2REJFAGIb5rpDW1NiJHduP+I+zS2ciUZ8aye3HREeb2f8lBbfECPHRPB4eHW3ypM8l6AzIK5vtP9718XFcuiDeF9511103wVtYICSELZChlOd1Qvr7Ww76N3ralAykZMpXIp33ULS3ev9oDycOE/KNmrZWM9xu+fJN9Ok5SErzfjCB8hTbthwUtSkuLp5XVFSUixCrYYctEKvVeiMEKcAWzuavUk1AkFUkDuGPNlqGpiL3KFNWaxTXj5GQWTDZr6sePVwX/NkNAAzDKNevXz8JY1gw/O0j4EHkbP78WL0/TU2j0yNeI11nKprwLeyjLeotV2TxsgZBnaiFVu99+d1uD44fOSdqM3/+fF817DGjHSOZsuYJacNLcmvTc4SnZUFfjxWDnB2eQbFbgnd4YOcc6O2St5S5D0lpASNF9VlxefL8/PwieP/rMRfVsAVCCBFlZQ7/6GOCVpb6wiJQCrTV94xY062jvgd8CD70aCAhKVAUQcqXo9FofPFEY1bDDntzQCkVSdlsDlRmaDhzGLH6iFTtZwQKdgRDXyUPT8wSfwL9cCZxlQq1Wu3zIYyp/kayWxOFiAzPNPK4Y/d5co8biH4o9vggFdWvVCp93q4xg8MiWdRFRduX3zwXhLn69a6uNgghWP6v4rCBYfVQRF81FSKSEVIJgQp3z7eWY936pXCNs1r1lx0qpUIyYr6lpcX3Qd8xtaxI1pA/EkL+A4KFIi5Oibgxvln+z4pt27btHfo5Zth9RPOM2Wx+gRDy/Uiu/WdDTU3NgfLy8peGDpvhnWFGRES2LJ1O95DVan0rkmv/mVBXV3do5cqVrw0jiWOQBIhIIIQQd1ZW1j3vvvvu9xoaGk64XK7Yl1+4RuFyuQYbGxtPPf3005tuvPHG/+vt7fWpnZcRQgr1eFUjAm80YlF2dnacTqe79gooxhBWq9UzLF1hOBoQYoGBaOmq6fBGJ6ZDpuzULyFcALoAXAAwcjK8AHJsHhSI8Td2r0HwiMGnvq/jOq7jOq7jOobj/wG+ZAIVFK2uEAAAAABJRU5ErkJggg==;imageBorder=#000000;" vertex="1" parent="1">
          <mxGeometry x="20" y="1900" width="100" height="100" as="geometry" />
        </mxCell>
        <mxCell id="V0iQPNpV9xVYlXSdjF5p-3" value="1" style="shape=image;verticalLabelPosition=bottom;labelBackgroundColor=default;verticalAlign=top;aspect=fixed;imageAspect=0;image=data:image/png,iVBORw0KGgoAAAANSUhEUgAAAGQAAABkCAYAAABw4pVUAAAABmJLR0QA/wD/AP+gvaeTAAADe0lEQVR4nO3dP0wTURwH8N+TNliGgwVBwgpRJ5UwlQ7GuLBhMHExIboYGdgcHRydKgZNHCSBEB38NzY0xkFIXOScNDQuDhf/4ABHUocCz6EltBzx3q9e7371fT9T83Lv3T2+3L3rXV8eEQAAAAAAQLxUsxV9389praeVUjki6iOijugOqy3tEtF3rfU7pdSc4zgrzTTCDkRrnfJ9/4FS6mYzO7SF1vqh4zgzSqkdTr1j3B0hDDNKqVue5z3m1mNdZnzfzyml5rg7sVVnZ+e5/v5+r1AouKZ1WGeI1nqaf1h2y2azU0Q0Yrp9itN4bQBvsDhfpFcvVminsstp6r+TSnfQxOQYXZu61FA+ODh4moiGiOgrEW2EtcMdQ/oOFyCMqp3KLr1+vhooz2QyPbWPQybtcAMJjDkI40ClEryhUkrt/41PmLTBumSFOXvxcpTNtY2Pb16abHbcZCP2bS80zeg7HwIRBoEIg0CEiXRQb8aZ4eGkD6HBp1Ip0f23NJC7t88Hyu7cW2vlLiMXdx9wyRIGgQiDQIRBIMK0dFBvtwH8KHH3AWeIMAhEGAQiTEvHkAvZk4Gyt6vfWrnLyMXdBwQSIu4+4JIlDAIRBoEI09IxpN3Gi6PE3QcEEiLuPuCSJQwCEQaBCINXuCHwCtdyCEQYBCIMAhEGr3BDxN2HxH+5mPQvBaXBJUsYBCIMAhEGgQiDQIRBIMIkftuLCTuN8LQ3BJ72Wg6BCINAhEEgwuBpbwhM2LEcAhEGgQiD+SEhMGFHGEzYsRwCEQaBCIP5ISEwYUcYTNixHAIRBoEIg1e4IfAK13IIRBgEIgwCEQavcENgwo7lcMkSBoEIg0CEQSDCRDqoGy6OBX/BPUMCa+Sl0rYvEn0gnQ7+f2ut9zhtcAP5cbhgYnIMoVBtpc8rY4Hycrm8yWmHtXz31tbWU6XUVU4d262vr6+Ojo7OEZEmomdh23PPkPu1hsHQ0tJSsfbxt8n2rEC6u7vfa60fsY/KUq7rLufz+f1HET9N6rBvex3Hmdne3n7CrWcb13WXx8fHF+uKvpjUY40h9fL5/I1cLnd9YGDgVFdXV0/dIrxW0lrvlcvlTc/zPi8sLBRnZ2frH9KViOiDSTtNB1KrO0KGy1JbrEREa2Q49v5LIPt6qRpKLxFlImqznWmqDuAbVA3jV7KHAwAAAIn4AxDs+1Zjsxe9AAAAAElFTkSuQmCC;" vertex="1" parent="1">
          <mxGeometry x="40" y="2040" width="100" height="100" as="geometry" />
        </mxCell>
        <mxCell id="V0iQPNpV9xVYlXSdjF5p-4" value="2" style="shape=image;verticalLabelPosition=bottom;labelBackgroundColor=default;verticalAlign=top;aspect=fixed;imageAspect=0;image=data:image/png,iVBORw0KGgoAAAANSUhEUgAAAGQAAABkCAYAAABw4pVUAAAABmJLR0QA/wD/AP+gvaeTAAADe0lEQVR4nO3dP0wTURwH8N+TNliGgwVBwgpRJ5UwlQ7GuLBhMHExIboYGdgcHRydKgZNHCSBEB38NzY0xkFIXOScNDQuDhf/4ABHUocCz6EltBzx3q9e7371fT9T83Lv3T2+3L3rXV8eEQAAAAAAQLxUsxV9389praeVUjki6iOijugOqy3tEtF3rfU7pdSc4zgrzTTCDkRrnfJ9/4FS6mYzO7SF1vqh4zgzSqkdTr1j3B0hDDNKqVue5z3m1mNdZnzfzyml5rg7sVVnZ+e5/v5+r1AouKZ1WGeI1nqaf1h2y2azU0Q0Yrp9itN4bQBvsDhfpFcvVminsstp6r+TSnfQxOQYXZu61FA+ODh4moiGiOgrEW2EtcMdQ/oOFyCMqp3KLr1+vhooz2QyPbWPQybtcAMJjDkI40ClEryhUkrt/41PmLTBumSFOXvxcpTNtY2Pb16abHbcZCP2bS80zeg7HwIRBoEIg0CEiXRQb8aZ4eGkD6HBp1Ip0f23NJC7t88Hyu7cW2vlLiMXdx9wyRIGgQiDQIRBIMK0dFBvtwH8KHH3AWeIMAhEGAQiTEvHkAvZk4Gyt6vfWrnLyMXdBwQSIu4+4JIlDAIRBoEI09IxpN3Gi6PE3QcEEiLuPuCSJQwCEQaBCINXuCHwCtdyCEQYBCIMAhEGr3BDxN2HxH+5mPQvBaXBJUsYBCIMAhEGgQiDQIRBIMIkftuLCTuN8LQ3BJ72Wg6BCINAhEEgwuBpbwhM2LEcAhEGgQiD+SEhMGFHGEzYsRwCEQaBCIP5ISEwYUcYTNixHAIRBoEIg1e4IfAK13IIRBgEIgwCEQavcENgwo7lcMkSBoEIg0CEQSDCRDqoGy6OBX/BPUMCa+Sl0rYvEn0gnQ7+f2ut9zhtcAP5cbhgYnIMoVBtpc8rY4Hycrm8yWmHtXz31tbWU6XUVU4d262vr6+Ojo7OEZEmomdh23PPkPu1hsHQ0tJSsfbxt8n2rEC6u7vfa60fsY/KUq7rLufz+f1HET9N6rBvex3Hmdne3n7CrWcb13WXx8fHF+uKvpjUY40h9fL5/I1cLnd9YGDgVFdXV0/dIrxW0lrvlcvlTc/zPi8sLBRnZ2frH9KViOiDSTtNB1KrO0KGy1JbrEREa2Q49v5LIPt6qRpKLxFlImqznWmqDuAbVA3jV7KHAwAAAIn4AxDs+1Zjsxe9AAAAAElFTkSuQmCC;" vertex="1" parent="1">
          <mxGeometry x="150" y="2040" width="100" height="100" as="geometry" />
        </mxCell>
        <mxCell id="V0iQPNpV9xVYlXSdjF5p-5" value="3" style="shape=image;verticalLabelPosition=bottom;labelBackgroundColor=default;verticalAlign=top;aspect=fixed;imageAspect=0;image=data:image/png,iVBORw0KGgoAAAANSUhEUgAAAGQAAABkCAYAAABw4pVUAAAABmJLR0QA/wD/AP+gvaeTAAADe0lEQVR4nO3dP0wTURwH8N+TNliGgwVBwgpRJ5UwlQ7GuLBhMHExIboYGdgcHRydKgZNHCSBEB38NzY0xkFIXOScNDQuDhf/4ABHUocCz6EltBzx3q9e7371fT9T83Lv3T2+3L3rXV8eEQAAAAAAQLxUsxV9389praeVUjki6iOijugOqy3tEtF3rfU7pdSc4zgrzTTCDkRrnfJ9/4FS6mYzO7SF1vqh4zgzSqkdTr1j3B0hDDNKqVue5z3m1mNdZnzfzyml5rg7sVVnZ+e5/v5+r1AouKZ1WGeI1nqaf1h2y2azU0Q0Yrp9itN4bQBvsDhfpFcvVminsstp6r+TSnfQxOQYXZu61FA+ODh4moiGiOgrEW2EtcMdQ/oOFyCMqp3KLr1+vhooz2QyPbWPQybtcAMJjDkI40ClEryhUkrt/41PmLTBumSFOXvxcpTNtY2Pb16abHbcZCP2bS80zeg7HwIRBoEIg0CEiXRQb8aZ4eGkD6HBp1Ip0f23NJC7t88Hyu7cW2vlLiMXdx9wyRIGgQiDQIRBIMK0dFBvtwH8KHH3AWeIMAhEGAQiTEvHkAvZk4Gyt6vfWrnLyMXdBwQSIu4+4JIlDAIRBoEI09IxpN3Gi6PE3QcEEiLuPuCSJQwCEQaBCINXuCHwCtdyCEQYBCIMAhEGr3BDxN2HxH+5mPQvBaXBJUsYBCIMAhEGgQiDQIRBIMIkftuLCTuN8LQ3BJ72Wg6BCINAhEEgwuBpbwhM2LEcAhEGgQiD+SEhMGFHGEzYsRwCEQaBCIP5ISEwYUcYTNixHAIRBoEIg1e4IfAK13IIRBgEIgwCEQavcENgwo7lcMkSBoEIg0CEQSDCRDqoGy6OBX/BPUMCa+Sl0rYvEn0gnQ7+f2ut9zhtcAP5cbhgYnIMoVBtpc8rY4Hycrm8yWmHtXz31tbWU6XUVU4d262vr6+Ojo7OEZEmomdh23PPkPu1hsHQ0tJSsfbxt8n2rEC6u7vfa60fsY/KUq7rLufz+f1HET9N6rBvex3Hmdne3n7CrWcb13WXx8fHF+uKvpjUY40h9fL5/I1cLnd9YGDgVFdXV0/dIrxW0lrvlcvlTc/zPi8sLBRnZ2frH9KViOiDSTtNB1KrO0KGy1JbrEREa2Q49v5LIPt6qRpKLxFlImqznWmqDuAbVA3jV7KHAwAAAIn4AxDs+1Zjsxe9AAAAAElFTkSuQmCC;" vertex="1" parent="1">
          <mxGeometry x="263" y="2040" width="100" height="100" as="geometry" />
        </mxCell>
        <mxCell id="V0iQPNpV9xVYlXSdjF5p-6" value="4" style="shape=image;verticalLabelPosition=bottom;labelBackgroundColor=default;verticalAlign=top;aspect=fixed;imageAspect=0;image=data:image/png,iVBORw0KGgoAAAANSUhEUgAAAGQAAABkCAYAAABw4pVUAAAABmJLR0QA/wD/AP+gvaeTAAADe0lEQVR4nO3dP0wTURwH8N+TNliGgwVBwgpRJ5UwlQ7GuLBhMHExIboYGdgcHRydKgZNHCSBEB38NzY0xkFIXOScNDQuDhf/4ABHUocCz6EltBzx3q9e7371fT9T83Lv3T2+3L3rXV8eEQAAAAAAQLxUsxV9389praeVUjki6iOijugOqy3tEtF3rfU7pdSc4zgrzTTCDkRrnfJ9/4FS6mYzO7SF1vqh4zgzSqkdTr1j3B0hDDNKqVue5z3m1mNdZnzfzyml5rg7sVVnZ+e5/v5+r1AouKZ1WGeI1nqaf1h2y2azU0Q0Yrp9itN4bQBvsDhfpFcvVminsstp6r+TSnfQxOQYXZu61FA+ODh4moiGiOgrEW2EtcMdQ/oOFyCMqp3KLr1+vhooz2QyPbWPQybtcAMJjDkI40ClEryhUkrt/41PmLTBumSFOXvxcpTNtY2Pb16abHbcZCP2bS80zeg7HwIRBoEIg0CEiXRQb8aZ4eGkD6HBp1Ip0f23NJC7t88Hyu7cW2vlLiMXdx9wyRIGgQiDQIRBIMK0dFBvtwH8KHH3AWeIMAhEGAQiTEvHkAvZk4Gyt6vfWrnLyMXdBwQSIu4+4JIlDAIRBoEI09IxpN3Gi6PE3QcEEiLuPuCSJQwCEQaBCINXuCHwCtdyCEQYBCIMAhEGr3BDxN2HxH+5mPQvBaXBJUsYBCIMAhEGgQiDQIRBIMIkftuLCTuN8LQ3BJ72Wg6BCINAhEEgwuBpbwhM2LEcAhEGgQiD+SEhMGFHGEzYsRwCEQaBCIP5ISEwYUcYTNixHAIRBoEIg1e4IfAK13IIRBgEIgwCEQavcENgwo7lcMkSBoEIg0CEQSDCRDqoGy6OBX/BPUMCa+Sl0rYvEn0gnQ7+f2ut9zhtcAP5cbhgYnIMoVBtpc8rY4Hycrm8yWmHtXz31tbWU6XUVU4d262vr6+Ojo7OEZEmomdh23PPkPu1hsHQ0tJSsfbxt8n2rEC6u7vfa60fsY/KUq7rLufz+f1HET9N6rBvex3Hmdne3n7CrWcb13WXx8fHF+uKvpjUY40h9fL5/I1cLnd9YGDgVFdXV0/dIrxW0lrvlcvlTc/zPi8sLBRnZ2frH9KViOiDSTtNB1KrO0KGy1JbrEREa2Q49v5LIPt6qRpKLxFlImqznWmqDuAbVA3jV7KHAwAAAIn4AxDs+1Zjsxe9AAAAAElFTkSuQmCC;" vertex="1" parent="1">
          <mxGeometry x="370" y="2040" width="100" height="100" as="geometry" />
        </mxCell>
        <mxCell id="V0iQPNpV9xVYlXSdjF5p-7" value="5" style="shape=image;verticalLabelPosition=bottom;labelBackgroundColor=default;verticalAlign=top;aspect=fixed;imageAspect=0;image=data:image/png,iVBORw0KGgoAAAANSUhEUgAAAGQAAABkCAYAAABw4pVUAAAABmJLR0QA/wD/AP+gvaeTAAADe0lEQVR4nO3dP0wTURwH8N+TNliGgwVBwgpRJ5UwlQ7GuLBhMHExIboYGdgcHRydKgZNHCSBEB38NzY0xkFIXOScNDQuDhf/4ABHUocCz6EltBzx3q9e7371fT9T83Lv3T2+3L3rXV8eEQAAAAAAQLxUsxV9389praeVUjki6iOijugOqy3tEtF3rfU7pdSc4zgrzTTCDkRrnfJ9/4FS6mYzO7SF1vqh4zgzSqkdTr1j3B0hDDNKqVue5z3m1mNdZnzfzyml5rg7sVVnZ+e5/v5+r1AouKZ1WGeI1nqaf1h2y2azU0Q0Yrp9itN4bQBvsDhfpFcvVminsstp6r+TSnfQxOQYXZu61FA+ODh4moiGiOgrEW2EtcMdQ/oOFyCMqp3KLr1+vhooz2QyPbWPQybtcAMJjDkI40ClEryhUkrt/41PmLTBumSFOXvxcpTNtY2Pb16abHbcZCP2bS80zeg7HwIRBoEIg0CEiXRQb8aZ4eGkD6HBp1Ip0f23NJC7t88Hyu7cW2vlLiMXdx9wyRIGgQiDQIRBIMK0dFBvtwH8KHH3AWeIMAhEGAQiTEvHkAvZk4Gyt6vfWrnLyMXdBwQSIu4+4JIlDAIRBoEI09IxpN3Gi6PE3QcEEiLuPuCSJQwCEQaBCINXuCHwCtdyCEQYBCIMAhEGr3BDxN2HxH+5mPQvBaXBJUsYBCIMAhEGgQiDQIRBIMIkftuLCTuN8LQ3BJ72Wg6BCINAhEEgwuBpbwhM2LEcAhEGgQiD+SEhMGFHGEzYsRwCEQaBCIP5ISEwYUcYTNixHAIRBoEIg1e4IfAK13IIRBgEIgwCEQavcENgwo7lcMkSBoEIg0CEQSDCRDqoGy6OBX/BPUMCa+Sl0rYvEn0gnQ7+f2ut9zhtcAP5cbhgYnIMoVBtpc8rY4Hycrm8yWmHtXz31tbWU6XUVU4d262vr6+Ojo7OEZEmomdh23PPkPu1hsHQ0tJSsfbxt8n2rEC6u7vfa60fsY/KUq7rLufz+f1HET9N6rBvex3Hmdne3n7CrWcb13WXx8fHF+uKvpjUY40h9fL5/I1cLnd9YGDgVFdXV0/dIrxW0lrvlcvlTc/zPi8sLBRnZ2frH9KViOiDSTtNB1KrO0KGy1JbrEREa2Q49v5LIPt6qRpKLxFlImqznWmqDuAbVA3jV7KHAwAAAIn4AxDs+1Zjsxe9AAAAAElFTkSuQmCC;" vertex="1" parent="1">
          <mxGeometry x="480" y="2040" width="100" height="100" as="geometry" />
        </mxCell>
        <mxCell id="V0iQPNpV9xVYlXSdjF5p-10" value="" style="edgeStyle=orthogonalEdgeStyle;shape=flexArrow;rounded=0;orthogonalLoop=1;jettySize=auto;html=1;" edge="1" parent="1">
          <mxGeometry relative="1" as="geometry">
            <mxPoint x="740" y="2090" as="sourcePoint" />
            <mxPoint x="870" y="2090" as="targetPoint" />
          </mxGeometry>
        </mxCell>
        <mxCell id="V0iQPNpV9xVYlXSdjF5p-8" value="6" style="shape=image;verticalLabelPosition=bottom;labelBackgroundColor=default;verticalAlign=top;aspect=fixed;imageAspect=0;image=data:image/png,iVBORw0KGgoAAAANSUhEUgAAAGQAAABkCAYAAABw4pVUAAAABmJLR0QA/wD/AP+gvaeTAAAYLElEQVR4nO2deXxU1b3Av+dOMlknmSQQJAkJyCLZlEVkU0Q2BRFarFBQqrbia2ufVYvVoqCi1UJ97SvPV1u3WhURXCqbLLJEZZWQEiEEZA0hgSSEzExWJpl73h83s9xZkgkE6etnvp/PfDL3nuWeOb97fuec3/mdEwgRIkSIECFChAgRIkSIECFChAgRIkSIECFChPj3RlzpAgRCShlptVpTFEVJEUKkqKqaIoRIBhQpZbwQQpFSxgEIIWxSSlUIYQVUKWWFoihnpJTlqqqWxcfHnxFCNF3ZXxQcV1wgUkpRV1eXqarqdUKIXCCn9dOTziufBE4AB4AiKeV+RVH2mUym4k7Kv9O4IgKpq6vLdTgco4UQNwM3AclXohxAJfCllPJLg8GQFxsbu/8KlcPFdyIQKaVitVoHCiHuEELMBPp9F8/tKEKIU8CnQojVMTExeUKIlu+8DJczc4vF0ltRlAeB2UD3y/msy8AZ4B1VVV8zm83Hv6uHdrpApJRKbW3tFCHET6WU4wGlI+lVVVJZUcOpkkrKy6o5V2XFYqmj+pwNq6WeCxeaaWy4AEBdXSMA0TGRKEIQFW0k3BhOgjmWxC4mzOZYkpLi6J6SSEbPbnTrnojB0KHiAKjARuAvJpNptRBC7WgGHaHTBNIqiNullAuFEAOCTVdVaaHoQAkHD5Tw7aFSTpeew25v7qxi6QgLN5CW1pU+/VLJzskgMyudlLQuHcnioJRyUVxc3FIhhONylLFTBFJbW3uXlPJZIKu9uHZ7M/sLT7BrRzEF+d9SVWntjCJcNOaEWAYP6ccNw/ozaHBfIiLDg0lWJIR41mQyfdTZ5bkkgVit1j6Korwipby1rXiqqvLPvUfZvLGAPV8f5kJT2y2gqxnSkwU9ukJKkiAhFpLiINEEURGCqAiJEILYSC1+QxM4pOSCXVDfBJY6yTkr1NRJKiyCkgqV0iqoqAEpAz83IiKc6wb1Zuz4QQwZeg1hYYb2qiBPCPGQyWQ62F7EYLkogUgpI2w229NCiMeBiEDxqs/Z2PDZHjZtLOBclf+WYIqGnJ6C7AxBTk/omyaIDpjjpXHBDkfKJEUlcOCkSlEJ1NT6j2tOiGXMuIFMnHwD3a5KCJinlNIOLIqLi/utEOLCpZaxwwKx2Wz9pJQfCCEGBopTcbaGlZ/sYOO6fL/9QfdEGJ6lMCILBvQRdLyf7TxOVsDOgyo7DkLRSenTgoQiuH5IP2bNHkvvvikB83E4HIWKotwVHx9/5FLK0yGBWK3WHwkh/heI9Rd+vtrGO3/7nLzNhaiqfjCSZIIJ1ytMvEFTRf+KVNRI1u+B9fkqZ8/rw4QQDB+Zxf1zbgvYYlRVrZdS/iwhIeHdiy1DUAJpHUG9DDzqL7y5uYVV/9jBivfzaGy068JyewlmjBYMy7yyLaEjqCr886hkxZeSrw/pm4zRGM7UO0cw/YejAw4AGhoalnTr1u0RIUQbPZZ/2hWIlNJYV1f3NynlLH/hx4+e4b8Wf0hpSaXu/tD+grvHCnJ7tS9zVQWlHWHtKpaYYwX9e7Qdb+dBSWIcXJPW9nODeSZofc77WyRf7JdIj0bfNdnMY7/+Adm5Pf2ms9ls61JTU6d11KjZZqmllFE2m22VEGKcnzDWrNzF395YT0uze0ienix4aIrghv6Bs1ZVOFou2XtEsu8Y/OwOhZ7d2i7oR1+qvLdZsuQhhfRk/3kXn4LH/uLgqVkGbsxpO7+CI5K3N0qGZ8HIbBEwTyffnpb8z0rJgRPul14Iwe1ThvHjObcRFu47IrNarTvT0tLGdEQoAUshpTTU1tauAKZ5hzU22ln82w/Yu+db173oCHhgksKU4YFV07EzktU74YtCFUu9du/usYIHJrb/qv51rcoHWyVXJcJTMxWMXtrC1gAL31OpbYBHpilMHdF+y3zhfZXNBVoF9+wG4wcrTBoqMMf4jy8lfF4g+fMqFWu9+35WTgbzFtxNXHy0T5qqqqqv9u7dO2769Ol2n0A/+C21lFLU1ta+BjzgHXa+2sbCBe9y/OgZ173MdJg300Can87a3iLJ2werdmrDTE/iY2D50wYigpiLvbRMZePe4FTy7HEKP76tfYGcs8LMFx20eMy5ww1wywDB90YqZKb7T2epkyxeIdl50F2eblclsOD5H9Ej3bcSjh8/vmbAgAFT0cwwbeL31aytrX0MP8KorLDw+CN/dQlDCLhnnMIr/+krDFXCuj2Se36n8tIHvsIAmDxUCUoYANUB5gt+49qCE1yXeLj5Wr3gmh2wca/k50scPPaqypHTvunMsYLf3q/w8ykKSmvyirM1PPmr1zl54qxP/Kuvvnry+vXrlxBEn+2j+CwWyyAhxDLvMEtNHU8/8RZnz9QAEBYGT0xXuGuUQHg9ZvchybPvSNbskjS0oT2fmKEQ59vK/bJsi1vNtUeiSTBuUHAj+phIAra8szWw5mtJeTX0TxPERLrDhIDsDEFWhsKOYmhuAfuFZnZsO8gNw64hLl6v91JTUwdGRkaeyMvL+6at8ugq/ezZszFGo3EDoOtiGxvtPPmr1zldWgVAhBEWPaBwY47+Rzfa4eUPVf66RlJT13ZFdDXDT24Lfhz81gZJsDbH6AjBHcODE0hirGD5FxI1UKOScKwcVu+SJJkEfVP1+aZ2gSHXQF4h2FvgQpOd3TsPMXrMdURGGl3xhBCGnJyckbt27dpUWlrq24xa0dVIdHT0PKC/d6RXl6x0DWvDwuDZ2QoDe+sLdqRM8uAfVTbmB6cu+qYEPye1t0haLe1B0RH1FhkBwRh8m+yweIXKC++rPq2+b6pg8Ry3yedclZXfv7jCZ3JsMpm6PfXUU/OBgLYYl0Dq6+tThBCPeEfYsC6fvC2FrusnZygMy9RX5hffSB5aonK6Kvh5UFRk+3GcnLeJNo2C3tTUSRwdWLWIjgj+5dhcIHnwvx2UV+sL1D9dsPBed5/yTeFxViz7wif9iBEjJt92221T8NNdgIdAHA7H81JKnUa3Wur42+vrXdffGykYO1Bf+K37JM+/p9LcwdWBlg4sjgbbSTuRamCjoT+aA+or/5Sdg0dfVX2EMrif4N4J7vpZsSyP8tPndHEMBoNx/vz5PyLAUoUCUFtbm4y2zKrjvb9vpqFea589u8HPp+h1/tZ9kheWqh16G520dkdB0REV5E4TXCWrKpRWth/Pm0oLPPKqSpm+vrlnrMK1V2vfW5odvPXGep+02dnZowYPHjwU8BnSKABSyh8BugFoeVk1n6/f67p+aKqC52T0aDksWq4G7gzb4USFpKImuMRFJzv+kKKTwcXbd0zSFNSUzZcqCzz5poP6Rnf5FAUe/r5bdX298xCHDp7SpVMUJWzu3LmjgGzvPJ2v/P3eARs+2+PqlIZlCq7v526K9hbJc++qXLiElVapwqc72q9oVYUv2hwo+mdrYXBC/Piri3yjWjldBUtW6vPo3V1w6xB3fa1b87VPupEjR44GrsZrPUmxWq198dJnzc0tbP68wHV95036fuODrXSoAw/ER19KvxMvT9buVoNuSZ4cOKGfSftjc4FkRztxgmFjvuSfR/X5eNbZ9q+KqKvVDxPNZnOPSZMmXYXmEOhCEUKM9H5AcVEJNmsDoC0mDerjzry+UfLhF53jeNHigF+/oXKkzH+lHCqF19ZefIW9/JHkZIX/sLxCye9WdJ4DyZvr9Hn17i7IStfqzW5vpiDfd91q8uTJ1wC9Pe+FAcO9IxYdcNs5hmcJnZl6yz5JXSd6yVrqJD//H8n3R2iz69QkqKkTbC3UjIkNl7Aoet4m+cUrKnfdJBiWpQ1vT1VK1u5uv/V0lKISOHxa6sz+w7PA2X0UHTjJqFuu1aXJycnpC8SjLfjVgSaQXO/Miz0MT97rGV8d6NwfAtoQ+MMvJR9+2fl51zdqZva3N3Z61j7k7YNr0tzX116tANp8oLjolE/87t27O82XXWgViAL4mCfPVdlc33t7zKilhIOnrrh/9r8s+094qy33C1ZZafGJHxkZaWr96rIVKECSd0Srh7Hfc22grknqhngh9HjNAYmJEoSFad8b6pt0C3mgE4jZeU/Bj8NCo4fijvIYlDnUUOtoi8YLvvUT61F/9V5GsPDw8KjWr65YCmDDi+gYdy71HnnER0OU0Tt2CCddzXrtISXUtb7bQghiovUGvObm5obWrzqBeDm8QFycW09Z6z3XkCEzI9RKAtG/h75u6i+4bXZR0RE+6+5NTU1Oo5DLSqIAXpoPunSNc30/fkYfNmZASCCB8F4fOl7u/p6cbMabpqYm56qRy+ahSCkLvSNmZmW4vn9zXN8Mxw0UmKJCQvEmMU5wY7a+XgqPu0ddWTkZ3kkoLy93WtxcnbYC7PSOmJ3rTryrWLMnOYkwwqShF1vsf18mD8U1onLiOfnMyvYVyP79+53Td7dApJTbvSNmZmcQ37omfOa8ZK/XrP++8QrdE0OtxEmyGX54i35p4mi55icGmlf9oOv7+qRbtWqV04/KNUlRzGbzMUBnTw0PD2PshEGu64+/0k94IiPgl9NCAnHyy2mKz+jT04o84sZsYk1RuvCamprSjRs3OleFXP24s5H9HfgvzwS3ThrCpx9vR1VVdh+S5H8rdSb4of0Fd40SQZs7EuME026EIf0EpmhBtVVSeBzW7fFd5Pmu6JMCE2/QPEfiYzTb186D8I8dvuvmgZg6QjAiy9e/YMNe90s8aYqvjt+2bdtWj0tXDQgAm82WBJThZZv/85JVrF+r2fIzuglee1RgDHM/XFXh+aUqee2sPfTuLnj5PwTmWN9W1eLQ3qY31qk6hzXQ+qskk+Ds+Ta8QgIQboDkBG2Tjne+0ZHwy+8pjB/s68IE2hrHY391UOVr7dAxIkvw/P3uxSjQ6uTRV1W+aXU5HTYik3nP3K1Lp6pqy+jRox/at29fLWAFPnOGKQBxcXHVaK1Ex933jiWm1RmppELy51X6cEWBebMUBvYJrL6EgPn3+BcGQJgBZowW/P5Bg67Zj8wWfLLAwNLfKCx/2sAtQQ63hdDWIj55zsB7Txr44GmDzgMxyQSv/EJhwvX+hQGQ1hUenda2i1J2Biy4Ry8MgHc3SZcwwsIN3PfAbT5p9+/fn9cqDIBjnmGupwoh5gO61ev4+Bjun+POcOUOlU0F+lc13AAv/URheJb/X3dNmta62mNAb1gwW/uBXeJh/t0Kzoltl3jtx88a03Y+QsBjP1D4xVTFtd0tyQTP36cQYdSsDC/9xECvq9ovz9D+gV+ikdmClx80EOHVb+R/K/n7JreqmjFrNCmpelNhS0tL0+OPP/5J66UK6BabXQIxmUyVUso/ej98wsTruWWse1PtouUqu4r1QokIh4X3am+dN1d1YDQ2LFNw5yiFaTcKnx8L8MBEhZtyA+c342aFyUN9w5PiBLcOFsy5XaFvmp+EflAUX1MIwF2jNHefSK9td8Wn4Jm/q64tC9cO6M1dP7zZJ/327dvX7tq1y6kMj+Mx5AUvR7m4uLiXHA5HkXcmP3t4Chmt+wVaHPDsOyoFR/SFDTNoPlv3TVB0qsDajgejNz+eIBg/yL+6EEJTJXF+vNN7dIX7fbWDi+k3K0wN0pvRia3eHd+gwCPThObP61W8I6fhiddV12Ja12Qzj8+bjuIV0WKxlM2ZM2dN62UL2tkrOnQphBBNYWFhP5RS6qQWGWnkhUX3k9rq4nehGZ54U2WDl5eiEHDvBMEzs90q40iZxN4SfI8cGaGpqEAkmOCnk30F9qsfKLoBhzepXYLboOPknBUqrVq5k+IEi+coTB3hm8HXhySP/MVBbeuyRLw5ludevNc1j3OiqmrzggULXjl79qyzbg8BPv6YPk8wmUwHWlpafuN9P94cy8KX7qNLV622Wlrgdx+ovPGZr5fgzdcK3pxr4Nqroa4Jtvu8B5fG+EGCrh6moeyegut6d+68aMNeTf2MyhW89SuFQX31+UsJy/Mkv3nTPUSOi4/mhUX3k+ZnE+WaNWuWvv32286lWBvgdyt1wF9RUVHxalRU1E+975+vtvH8M+9x7IjbctY/XfDUTMVnS4KUsLNY8vleyVOzFNrf9h0872+RvP6Z9iY8M1th9HWdJ5C6JnjhPZUpfuYYoHlFLl6h70uv6p7Igudn+xVGYWHhpptuuumt1kvnUR01/p7d1g4qpaSkZG1iYqKPZm5qsvP7F5ezZ/dh170oI8y53f8OKlVCczN+O+qLpbYBpi10EB8Fy+cbOnVDaaMdIsPxGRYH2kGVnduTeQtmYfKzt+LEiRP5Q4cO/e+mpianHtkLfOsTsZX29hhGnDp1aktCQsIIP2GsWbmLt9/YQHOz21G3R1fNy3FoG3sMO4tHXlVJSYJfT7/823sPn5a80sE9hqWlpftGjRr1x+rqaqd5/Siwp63ntFtr+fn54eHh4Z/06tVrsr/wY0fL+cPij3x24Q65Bu4eo3S6bvdk6WZJ96TLu0Zz+LRk6WbJtgP6QwXa24VbXFz81fjx41+z2WxOO8FpYBva6XYBCeqXjB49OuzFF198JycnZ6a/8ObmFlb/YyfL39/qs089u6dgxs2C4VmiU/sQ0EZwXc2BN2leLKoKBUcly/M0G54nRmM43/vBSO6acXPAferbt29fOXny5BUOh8OZ+AzwJUHsMezIqyWWLVv26/Hjx883Go1+q6DmfC3vvr2JrZv+icNr6JVgggmDBROHKGS0swX6SnHmPKzfI1m/R8Xba0cogpE35XDfT24luZvv6h9Ac3Nz49KlS998+OGHd3jcPgnsJghhwEWcdTJnzpyJTzzxxJ+Sk5N9DfytVFZY+PTj7Xy+Pp8LfjyyPc86ua5357ecjhDMWScjb8xm5j1j6JER+GjI6urqEw8//PCS1atXezqvHgR8VmTb4qKUb25u7tWLFy9+adiwYd83GAwB99Ger7axYV0+n6/fG/A0oNhITa1lZQhye0G/VM2f6XLQ6DwN6KTkwEk4eFIG3EiakGjilnEDmHh726cBORwO+7Zt21bPnj17pcVicY5umtE6bz97j9vmUn55zIwZM+6cP3/+o+np6W2eIKeqkn0FR9n8eQH5uw/79DPeJJkgvZt2ukL3RE3dJZq0M7OijIKYKO01dq7t1zdKVLRzs5rscL4Wqm1QUwdnz0tOVcKpSumjhryJiAhn4OA+jJ0wiMFD+rV7XlZZWdmB+fPnv/3RRx95uDNwHtiBl6E2WC71VVSA7EWLFs2eMWPG9MTERN+FYy+am1vYX3iC3TuL2bP7cMCW812RkGhi8PV9uWF4JoMG98EYxMb56urqkmXLln04b968Ao/bDqAYKCLI/sIfnaUbYsPCwoYsXLhw0qxZs+5MTEzsFWzCc1VWDh4o4WBRCYcPlVJ6qgr7pewEagOjMZy0Hl3o2y+VzOwMMrMz6J6SGHR6i8VS+vHHH38yd+7crz1GUAAVQD5+nA47Smcr6zSDwXDts88+O3rq1KnjMjIyrhNCdGjWJqWkssJC6alKyk5Xc+6cFUtNHeerbVhq6rDbW6hv3Q9RX9+ElJKYmEiEEETHRGA0hhNvjiEpKQ5zQixJXeJISU0iPaMb3a4y+1hggyiPWlJSsu/TTz/d9NxzzxV6CcIC7EebY3QKl2tGlQrkjhkzpu/cuXNvGThw4KiYmBgfp+5/ZRoaGs7l5+d/9Yc//GHLli1bqr2CrWjq6STtTPQ6yuW0bwggBegDdJ85c2aPWbNmDR0wYMDw+Pj4wGflXUHq6+urDh8+vHfVqlW7//SnP33r1Rok2gTvKFBOJwvCyXflyxODtnWrFxA9ffr01MmTJ2dmZmZmpqenZ0ZFRfmfaV1mGhsba06fPl1cVFR0aM2aNcUrVqwo8xOtAe0g/2NAkKetXDxXwrkqHkhv/cQB3HHHHd3GjBnTs2/fvumpqalpycnJPWJjY5M72v8EQkqp1tXVVVZWVp4qKys7feTIkdJNmzadXLt2bYAdiNSjeeGcAjqwo/7SudLebvFo/xnB+XH568fFxRkGDRoUn5ubm9SjRw9zSkpKYnx8fKzRaDRGRESEh4WFGY1G7Rgzu93e3NLSYr9w4UKz3W63W63WuvLy8vOlpaWW/fv3VxcUFFg9jHz+aEL7TwnOzxUbi19pgXgTh7abyIwmLDOauuvM/yNSjzY6srb+reEiJ3GXg381gfhDAaK8PpFoZQ/3+AuayUK2/lXRPDoavT6X9TD9ECFChAgRIkSIECFChAgRIkSIECFChAgRIkSIECH+X/F/8U0n2t/ezHoAAAAASUVORK5CYII=;" vertex="1" parent="1">
          <mxGeometry x="610" y="2040" width="100" height="100" as="geometry" />
        </mxCell>
        <mxCell id="V0iQPNpV9xVYlXSdjF5p-12" value="Text" style="text;html=1;strokeColor=none;fillColor=none;align=center;verticalAlign=middle;whiteSpace=wrap;rounded=0;dashed=1;" vertex="1" parent="1">
          <mxGeometry x="150" y="1960" width="257" height="40" as="geometry" />
        </mxCell>
        <mxCell id="V0iQPNpV9xVYlXSdjF5p-13" value="7" style="shape=image;verticalLabelPosition=bottom;labelBackgroundColor=default;verticalAlign=top;aspect=fixed;imageAspect=0;image=data:image/png,iVBORw0KGgoAAAANSUhEUgAAAGQAAABkCAYAAABw4pVUAAAABmJLR0QA/wD/AP+gvaeTAAAfB0lEQVR4nN19eXiU1b3/531nTSaZyb7vOwkhCQkERAiLIBrBFkXBglC4P6u2Sm1/ammrt957lXptvW29FqoIuKGlWFoQVEAM+w5Zyb7vk3X2yWzn/jGZ9Z3JLJkE6Od58mTe8573Pec937N910PhLgAhhJLJZBmEkEKaptMJIUkAkimKCiSEBAHgAaAAqCmKGiWEyAC0URTVajAYmiiKuh4YGFhPURS5rR/iBqjbXQFnGBkZSaJpejVFUQ8AmAcgaJKvHKUo6rLBYPiKEHI4KCio1QfV9DnuKIJIJJIQAE9SFLUZQN4UF1cJ4EMAHwqFwqEpLstt3BEEkclk2YSQXwBYC4A/zcWrARykKOq3gYGBNdNcNgO3lSBSqTSDoqh/J4SsA0DfzroAMFAU9VdCyGtCobD+dlXithCEEMKXSqW/oChqOwCuO88oFGo01nehuakH/X2j6OsdhlSigEKhhlarBwBwOCwIBHwIRQJERYcgMioIqWkxSM+Mg0Dg9sDTURT1Z4VC8cuoqCiFd1/oPaadIDKZrIQQshtA2kT5DAaChrpOXLpQi6uX69DVOQhCvNskURSFuIRwzJmbieL5WcickQCanvjTDQZDK4vF2hIYGFjmVaFeYtoIQgihpFLp8xRFvQWA4yzf8JAUx7+6huNfX8fggGRK6hIWLsKKlYVY8UARQkKFE2UlOp3ud8HBwb+gKMowJZWxw7QQZGBgIJDH430CYLWzPIMDEuz/+BTKvi2HTqdn3GdxWIhPjkNyZgIiYyMRGhmCoFAR/AV+4HDZAACtRgelQoXRIQmG+ofR392P1voOdLZ2Qa918E4WjSXL8vHEk8sQFi5yWn+1Wn2CxWI9GhoaKvXi8z3ClBNkdHQ0mKbpowDmO7o/ptbi049O4ujhy9BqdTb3hEGByJuXi/z5ucjMSweH43RgTQitVov6ikaUX6xCxaUqSEdlNvc5HDZKVxfjiSeXgc93vKQplcpaAIujoqLEXlXCTUwpQRQKRbRerz8OYKaj++U3mvDuH/+J/r4Rm/SMWWlY/OC9yJ8/Cyw2y6d10uv0KL9YibJj59BQ2WRzLzIqGD/e9jDyZzte3hQKRdvw8HBJTk5Oh08rZYUpI8jQ0JCQw+GcgQMGz2Ag+GTfCXxx4KzNQp0yIxlrNq9C+szUqaqWDRqrm3Howy/RfKvFnEZRFNasXYiNP7wPNM3cictkso7z588XP/bYY31TUSffdr9xEEI4er3+nwDusb+nVKjx2//6HCeP3zCnBYgE2PjcOjz+ozUIjQiZiio5RGhECBasmIfI2Ag01jRBM6YFANTWtKOxoRtzijPBHV+fTODxeCKRSHQ/TdOfXbp0Se3rOk3JCJFKpe8D+Df7dLlchVd+sRfNjT3mtLzimdj4/DoEBgVORVXchmxUho/++Bkqr1iY9ZS0aPzXb7cgINCPkb+hoeF4UVHRKgAaX9bD5yNEKpV+H8Cb9ukKhRr/vn0fmsaJQVEU7n/0Pmx4fh34fjxfV8Nj8Pg8zCmZDS6Pg7rKRoAAI8Ny3LzehAULZ4LHs91QhIaGps6YMYM6dOjQaQA+kyL7lCBKpTLWYDAcA+Bvna7T6fHarz5CXW0nAICiKWx8fh3uf3QZKOqOEKcBMHaStOwUBIcHo/JKtZEoI3LU13Zi8bI8xpqSkpJS1NPTU1VZWekzUYtP5Uc6nW4ngFD79Pd3HkVNdRsAIzGefH49FqyY58uifYoFy4ux9cUnzQSoqW7D+zuPMvJxuVz/l1566TcAEnxVts9GiEwmWwLgDfv0slMV+HjvCfP1I1sexuKHFvqq2ClDbGI0uHwuam8aO39TQzeiYkKQnBJlky8oKCiaz+fLy8rKLgPQTrZcn4wQQggN4C37dKlEiQ92HTNfz11ShBVrlvqiyGnBijVLsWB5sfn6/Z1HMToiZ+TbtGnTpoCAgLm+KNMnBJHL5WsJIYX26X/58xFIJEaBaXh0GDY+97gviptWrHvmUUTEhAEA5DIV3t/FnLpCQkIS3njjjUcBRDFueghfjZCf2qfV13XibFkVAONi+cSPHwOX55ak/Y4Cl8fFxufWmzcfZ8uqcKu6nZFv1apVDwIowCRZiUkTZHR0tBBGnbcNPvv4lPn33MWFyC7InGxRtw0Zs9JQvKTIfP35p98x8oSGhiY/++yzRZjkAj9pgtA0/RP7tIa6Lty41mi8z6Lx0PqVky3mtqN0/UrQLGNzld9oMm/hrbF58+blALImU86kCEII4QB42D79q6NXzL/nLi5ERGz4ZIq5IxARE2YzSr62+kYTUlNTC4OCgiLgYOvvLiZFEIlEshhAsHXamFqLC2erzddLVy2aTBF3FJauKjH/Pn+2Gmq1rdSEw+H4b9u2LRtAhrdlTIogFEUxRsfFC7egUhkrGpMQhcR0n/FMtx0JaXGITYoBYOx4F8/dYuRZtmxZEYBYeNm2kyXIffZp1y5bpAjzl/lka35HoXipZdq6eoUpMUlNTc2FUUUd6c37vSbI8PCwCEC6dRohBFWVFoPAnKIZ3r7+jkVuUbb5d1VFK8PwIjAwMCInJycAxlHiMbwmCIfDKbR/vqtzECPDRvWoQChAdEK0t6+/YxGdEGVWFUhG5ejsGLDPQq1ZsyYJXjKJXhOEEDLbPq2hzrIVzJiZ6tLU5m4ERVFIz7FoNOsdbH8LCgqSAQTCTZsza0xmDUm3T+jpsZjIxowvfv+KiE20jPzeHqZZcFRUlCmDx+rPyRCE0eI9XZbKRcbc/byHM1jzVd3dTIKIRCKTpb7HBGG7zuIYFEXF2C9o1r3l3OlO3Lg57ZaY0wKVdNT829EIEQgEJkIEePruyawhjEVLJlOZf3O4023EPn1gcy0qZ7nVN5sgEAhMzLI/46YLeEUQmUy2Dg6mLGvOlWZ5PfjueNBsy7eplGOM+zweL/C9994rAcC0jnD1bk8fkEqloYSQvzi6p1ZZEYT9L0wQq85mLz4xYe3atZuLi4s93vp63GoURT1NCGFYKJ87XWU2BeXyuHj250s8ffVdhZ9e/hoqhQp6vQFnvqvEoiWzbO6zWCzeK6+88tBDDz10GkCL47cw4fEIIYSU2qeVnarAWzsOmK8zZzF2xP9yyMi1mJv+/s2/2Rj+mZCTk1MAoBAeeIV5s4Yw7DwP7C8zixBiEqPxg5885sVr7y488exaxCUbpSOEEBzYz3QjEQqFkTDOQm73UG8meoaJ4YDYsg38+Y7nECAS2NzXa/V49ns/86IoJgrvzcdT23/oMh8hBH96dRdu3aibdJlcHhfv/N3WhiMoVIQX//t5bFv7MgBA3D/KeI7NZpsW9RgAVe6U5XO/Pq4fU1qg1ekc5PQcomAh1j3zqFt5KYrChp88Dv8Aj3eeDOi0juvP4VqsGZ2IiUxOPm7byU6LoyWX651fhzVYHBae2v5DCD2wAQ6NDMHWFzc6tGL3BBxn9bfmix3Qg1g4Z7dnomkhCM2iIQye0HVs4udpGj/82Qak5aR4/OzMomw8uW39pExWQ8IdxywwwOLlRlMOm9Jjm99pc0WOS/JOFM9is7DphScwZxFDuOw25t83F+ufedTrkRKT6LjuxGDV3hOPELcJM20EyZ2b4/Ez/oH+2Pafz2De0jmTLr+k9F4899qP4C/wmHnGrGKHDmA2zexkAN65I6R4cRFj9zURCu6ZhVfeecmnPE327Cxs/8P/R/Zs9y11QsKDUHDPLIf3DFbCVdoBRQwGw507QgRCAdY/vRaUC6VVQno8nv+Pp/H0r7YiJDx4wrzeICImDNv+8xk8/cstZoMFZ6BZNH7wk8fB4zv2XyEGyxpCOZ4OPSbItAqcihYVwD/QH1/99TjaGjtA9AR+AX6ISYxCalYy8uflIiE9flrqUrAgDwUL8tBc14aKi1VobWhDb0c/VAoV2GwWUrKSULp+5YQbCRebLK/WkGmXAGYXZN5RZqWpWUlIzUry7mGrRd3JyPc42MDtDvhyV8NgRRBHjOEdvcv6VwSxamfKsdH77dll2ZTqZYCYuxEGq0WdxWI25ZSPEIVCEe3ombAwCxdedeW2xwCbNlRftZiSRkQyuXkOh8NfvHixR4YObvsYEkJ4arX6KwCMFbC/f9Rsn3T9XDnUqjHkeLDX9wYdzV04+c8y/H3PP/HF3sP4+m8ncf3sTQz0DyFAKIAoxHtRjTs4+vk3OPDeIfP1g6vnIXtmok0emqbZK1asyNy/f/93SqXSrZ7q9i5LKpVupyiK4ZijVmsYoudrZyrw8MbV4PJ8v0Q1Vjfj8KfHGHFKAKCzpRudLd04fvBbZM5Kx6ofPDAlYTo0YwZcKau2SaupasPK0jkICLCVBISGhqbu27fvkdLS0i8BKF29260RolQq4wkhf4UdAVUqDX754m5Ulls0lBweHwXzliE8OgKiEN+5sElGpPjw7U/xxd7DGOofdpl/qH8YF05eRk9bL9JzU30anKCrVYExFQ993W3QaY069d6eIVy5XI+SxbPAtQsyEBcXl15eXl7f3NxcAxfriVsEefnll18BYOPoQQjBG6/tR01VmzktfeZslKxcg9CIaKiUesQmCZzJeDzCzfMVeOc3f0F7E9Ns0xV6O/tx/ptLCIkIdsmZuwNCgLryUfj5i5CenQ8DMWCo3xidQipRoK62E0vvK7CRLtM0zYqJiaE//fTTagAThndySRBCCK3RaD4BYCOIOvNdJb44cBaAURlUXPIAZhYtAItt7B06LYEwmAs/gfe8p1o1hs93fYG/7z1sDgzjDbRaHW6er0BvRx9mzM5yrt9wA0NiNXrbjTMPzWIhOi4ZwqAwdLU2ACAYEI8iJDQQaRm2xu+hoaERf/jDH64SQloAONXYuZzkpVLpXAA2dqGEEHz2icWpMyt/LlKzmWF2e9pdTplOIe4W4/Vtv8PZry94/Q57XD9Xjh0vvA1xt/cxyHrbmN+UmJaF3CJL4KMDn5222RIDgEAgCN24cWMyXOjX3em+jEhwtTUd6Bm3aeXy+cgtvNfhg8NiNcZUevD8PAsYUVtej/d27INS7pygMQlRmLu4CFn5GYhJNJo/dbf3or68EVfKrqGnw3E4K3G3GDt+9j94avtmzMj3TISjVuoxMsg0jAOA7Nnz0XSrHEqFHIMDElSWtzACoS1atCh13759yTAGcXYIlwShKCrbPs163UhIyQLbSeg9QoDeDiWSMt1Xu54+eg6f/+ULGPRMMZC/wA/3LC/G/Pvmmi0+rJGSmYSUzCQ88PhydLZ049K3V3DhxGUoFbbmnkq5En96dRfW/egRlJQ67kyO0NOudMr30jQLcSlZaKi6BgC4Vd3OIEhycnIcjOalQQCYVhFwb4QwrO/a2/rNv0MjJ3YU6u1QIjE9EI41nBYQQnBo35f45uBJxr2wqFAseuAeLHxggdsKpviUWMSnfB+rNz6IK2XXcfJQGfq6LPU26A3Y/+e/oa9LjMee+r5LFS8xEPR3TTwFh0XGoGHctsS6jUwICAgwRdoMxSQIwjDbkEotFfMXTNz7NWMGDParER7t3FbMYCDY/+4BxnoRmxyD0nX3o+CePK+df3h8HhauvAcLVszHzQsVOPrZN+huswRQO3X4NLQaLZ748WMTliHuVUMzNrHw1l9gMXa3biNzXXg8UyM4DYHqDkEYb7aeTmiW64bqaVc4JYhep8ee33+Ma2dumtPiU2JRun4l8ufn+iyeFk1TKLw3H7MX5KH8QiWOfv4NOlu6AQBnv74AlVKFLT/f6DTopjsbFJq2PGstCTZBq9WaQgI67Z3urCEyez8QvpXtlWbM8SJnjdFBDRQyHQSBtsXpdXq899u9KL9oHOchESF4eMODKF5aNGWBzSiKMiunKi5X4+AH/4C4ewDXztyEWjmGZ369FWyObT0Vch2kw64j+Wk1lrawj0AHAGNj5sZy2u4uCTJ+OIoNIqMsqlXZqGuuGTCuJWk5FvmSwWDA3t9/gvKLVQgQCbBizVIse3gxozGmEnnFMzGzcAYunLyMI598heprt7D7rY/w/17aZDNSelrdczySjFi59MUygzmMjY2ZRggzqvM43Pl6huV2fIKFLZGMDLrxCqC/S4WUrEDQLAoGgwG73/wQNTfqsHrjg1j+vSXgOglgPNVgsVlYuPIeFC8uwol/fIfjX5zCB299hH97eRNomoZeTyDuZjrlOIJkxOKRa91GJvT19ZkyOOVyXTKGhBCGTWpCosUnfmTIPSZLpzVA3KMyMpU7D0IUIsTru19F6br7bxsxrMHlc1G67n68vvtViEKE+GznQRBC0N+lgk7nnjpjZMiys4pPjGDcr6qqMgVgdsqpuxwhHA6nUmdnm5ucGg02hwWdVg/J0ADUSjn4/q7d6brblJCO9GDp6hJEx3sV6GDKESAS4PEfPYLezn40VjVDJnHvpCW1UoHhAWPnZLNZSEtjys2OHTtmIojTOdDlCPH39+8CYMP2+vlxkZ1tlP0TQtDb6fo4Jz8BC4kZAciYlXbHEsMa0fGRyJiVhsSMAPD9XUsaejtbzNrSGTkJ8Lc7r0SpVA6Wl5eb1mOHPAjgvsaQwa3NnmMRyXS3NTt9kMWikJgRgKKScIRF3n2OoGGRfMxdHI60HCFYE2zxe9otbTC7iCmuamlpsVagOCWIW1saQsg3FEVtsE6bU5yFfbu/MVamownaMTU4PNsGD43kIS1H5FYP8wSEAEN9agz0qSEb1UCjNvJFXD6NwGAuwqL4CIvk+0T0DxhNfGKTBQiL5qO1Tob+LttFXqMZQ1e7RWE2t5ipLb169appLVYCcMoruEUQmqaPE0L0sBLXxyeEIyUtGi1NvdDpdGhvqUfaDKPE10/ARvpMIYLDfR+xemRwDI1VEqgUzJ2jSqGHSqGCuEtlrEOuEMFhvqsDj89CVn4QouL80VQjgUJmXFvbG2qgH19n09JjGQs6IcSwe/duE0F6JyrDrSkrMDBQTAhhBBq8b4XFIr21rgr0+PQ0pyRsSojR3ihH5aVhh8Swh0qhQ+WlYXQ0McO6ThZBYVwULjROY2w2hZYGy2y0bEUBI393d3d1VVWVqSITnqrgttKboqhP7NNKluSBzTEOmoG+LiRnAUkZgS7td71BZ7McbfUMHtUlWutk6GrxfUQJigZikwVIyoRZY8jmsLCwhGmYferUqbPjPwkAptTRCm4TRKlUHoTddi1Q6I/CIks0uxvnmZ6orjCm0kM6ooFcooVe73i/Lx3VorXOc2KY0FInhUzimBfTaAyQjWqhlOmclj8RLpddNf+eN38GhCJbWaxerx978803r49f9mGC9QPwwOokKipKIZPJDhNC1lunL11egMsXawEAV8quY/WGB12+y2Ag6G5TorddYTP9UDSF8Bg+ElIDbOReLbVShh7CYNCjqeYmWhtvQTJsZIBFIeFISs9Bek6+jaCPGIDWWhlmzQsxX/e0KdDdroRKYeGxaJpCSAQPiekBCBC5p+a9evq6+ffS5czpqqGh4UpnZ6dJZNLGyGAHjwRHBoPhE4qibAgyZ24mOBw2tFodBnoHodVqJzwrakylR/W1Ecgd9FhiIBB3qTDQo0ZGrhBR8f5QyHSQDNkK9lQKOb47egCjdlKCof4eDPX3oKW2AotLH4OflTh8ZHAMCpkObA6FmmsjkI0yyzcYCAb71BjqVyM1W4jY5In9WTQaLYYHjMc1cbkcFBQyt7tffvmlabrSAeia8IXw0HJRKBQeB2CzSrI5LIiCLBWXS5zP1zodQeXlYYfEsAYxENRXSCDuUmGo3/YQG4NB75AY1hgZEqPs6AEYDLaL/0CvCtVXHBPDpnwCNNVI0ds5schdbnW4mFDkzzAn1Wq16rfeestk3tiJCUQmJng0QiiK0kml0nYANv5pQqG/+czB0SEJgsMcixva62VQyi11UshluHH+JPrGOf3IuETkz1sCYZBxammskcJPYMvDNNXcnJAYJowMidFUU4GMXMtOsKNRbjP1uSq/uVqK0AgeuDzHfNTIoIW/s+6UJshksn61Wm1SHrmcrgDvjK0Zgc8TkyyikJZax2IUnY6gp8PS4xRyGb468AE6W+qh1Wqg1WrQ1dqI43//CAq5sefptAZGb25tYIZmdYa2RlvrTXtiuCpfryfobnU+SppvWb41JZXpGCqRSEyicC1c7K5M8IYgjNAIObkWc9+6igaHD40MjsFgtYu5cf4kNGPMM7U0Y2rcvPCt08LdFfcDwOgwI0Clx+UPiZ1vimqtvjU7J5Fxv6+vz6QrVsBNC3hvCHLaPiGvINWs4au+XovhAaaoRq20nc/7JhBI9kxwz2S66Q4myutu+WqF42l/sG8IdeVGglA0hbwCpg3xxYsXTcPZbe7UY4Lo9fozsNN4RUYFmytk0Btw8h/M0wM8we0+l8q6fGdVOXHoO7MxXGFRBuPoVoPBoN+3b58p0rLbR7Z6TJDg4OBRiqIY0t+HHrYYxn935Aw6mmx3ePYCxsg45hA3ITo+2dNqeQx3y+f7M/c9bQ3tOHPsvPl61feYp8p2dHSUt7W1meZEt00lvfUXeN8+Ye68LLNhmEFvwPtv7oXMalsYHMazsVDJn7cEXB5THM/l+2H2/Kk/Fsnd8kMibGVykhEp3n/zQ8vomJOBgkLmUa1Hjhwx2doaALi98HklF3/jjTeaxsbGNlMUZTNOs2cm4sTX16HT6aGQKVFX0YC84png+/FB0xS0Gsuuicf3Q2J6DlQKGRQKGWgWG3HJGVh0/xr4Bzi29epqa0R7U61HdQ0Ji4IwmOnE5E75LJpCVkEQ2Gxjvx0dkuBPr+5Cf5exw/v5cfGb1zcxlFFyuVz8yCOPfKQz6n57ALjW4I3D68laIpFsoCjqY/v0a1fq8fpvPoV+3HZLFCLClp9vQFZ+BnQ6gpvnBm14EXegVspRcfk0muvcCjnFQGp2HvLmLALf3/1IEgCQmSdCVLxRNnXrZh32/v5TSEeMywGbzcKvX9vgUBn1wQcf/PGFF164PH55BkC3u2V6TRBCCCWTyS4CKLa/99235Xjn7UM256IX3DML9z96H2IS4pyKTuwhGx1GU20FGmpuQK+d3Il0bC4HGdmFSJ0xC4FBE7v9URSQki1EXLIALfVt+OrACVResojY2WwWfvriI1i0mCnZ7e/vb8jKynpNb5RUygF8CQ+cPie1nZFIJGmEkBs0TTPmmOrKVrz5+l8hGbXd8cUmxyB79gyEhsVCq/EHRVmGu1ohh1w2ioG+boh7OzDQy+xY2TMTUVvTwTiVwBGyZsQ7PJooPDoW4VHxCI+MQ0BQEPz8BABFgaIAnp8WHK4CXa3tqLlRh552W31ScEggXv7VOoY/IQBoNBrlpk2bfnX06FETE3gegEdHfU96fymTydaOu7sx3jU6IsdHe47j25M3bUMZeYG09Fg8uWU58men4UxZJd55+xDGnDjxcLkcPPfC91CyNA/Xrzbg430n0NI0oaLOJSiawn0rZmPj5uUICnZoYUN27tz59ssvv2wS/w7AgS2Cy3ImU0kT2tvbtwUHB/+Ps/e1NPfi6OFLOFNWiTG1+1MPm8PCnOIsLL9/NgrnZNjwByPDMnx97CquXqpHX6/RejIqOgRFxZlY+WARQkItVpKEEFy/2oAT39zA1ct10GldaxxN4PO5KFkyC6Wr5yEpxWkYXnL48OEPN2zYcHz8WgPgG3jAEJrgMw6ssrLy14mJif9BTcDVqVQaVFe2orKiBe2tfRD3j0IqsciKREEChIWLkJQciZmzkpGTm8Twap0sFAo1airbUFXZgo52MQYHJBgZtrRbcEgAwsJFSE6NRu6sZMzMTQaP71ydQAgxHDp0aM/mzZtPWSWfhRuidkfwKUt88ODBDQsXLnzHz8/PPeuyuxxqtVr67rvv/vm1116z9oi6BqDR23f61D7nwIEDlUql8mxKSkpucHCwV0f+3CUgzc3NV5544onf7d+/37RoExiJwXSg9wA+P+D+6tWrnbt27ToCYCQzMzPR6uiGSUMmk/WLxeImoVAYOdHUCBjjjHR3d1fRNE1xuVzPGJAJIBaLG3bs2PG/W7ZsOdbd3W0SBavhxY7KEaZSiucHoPCpp54q2bRp07KMjIwiHo/nvrPhODQajby9vb3y0KFDp3fs2FGt1+tJaWlp5NatW4tnzJiRHRwcHGd6r0ajkQ8PD3fW1dXV7tmz59KRI0f6uVwutX379tzVq1eXJCYm5nG5XI8D+Y6NjUnr6uqu7t2799SePXvsue5OGEcGU5bvBaZDrBoOIJ/L5YZv3bo1Zfny5dlxcXFx4eHhcX5+fiIOh+PH4XD8tFqtUqPRqNRqtVQsFnd2dnZ2nzt3rn7Xrl1NVlo3E2Qw7mCi3PgGAqO1R6BAIBA9++yz6fPnz8+Ij4+PCwsLi+Pz+UIul+vP4XD4Wq1WrdFolGq1ekQsFnd3dnZ2HT9+/Na+fftaNRqN/b59EMBNeCCncgfTKecOAZAGIA6AN1Z0Ghit/lpgMTYLgPEw4EgY/fa4VnklMGrpOmEkIAUjAVPG/3vjAzE2/r4mACNePO8St0PxQMFIHFMjCmGc3tgwHsioHf9Tw9ioEhh74SC8CAg2QR3CAYSN10EEYyfhTFCHfhiJMKUBwf4P08vZ06YdgscAAAAASUVORK5CYII=;" vertex="1" parent="1">
          <mxGeometry x="610" y="2210" width="100" height="100" as="geometry" />
        </mxCell>
      </root>
    </mxGraphModel>
  </diagram>
</mxfile>
